<?xml version="1.0" encoding="utf-8" standalone="no"?>
<!DOCTYPE svg PUBLIC "-//W3C//DTD SVG 1.1//EN"
  "http://www.w3.org/Graphics/SVG/1.1/DTD/svg11.dtd">
<!-- Created with matplotlib (http://matplotlib.org/) -->
<svg height="432pt" version="1.1" viewBox="0 0 504 432" width="504pt" xmlns="http://www.w3.org/2000/svg" xmlns:xlink="http://www.w3.org/1999/xlink">
 <defs>
  <style type="text/css">
*{stroke-linecap:square;stroke-linejoin:round;}
  </style>
 </defs>
 <g id="figure_1">
  <g id="patch_1">
   <path d="
M0 432
L504 432
L504 0
L0 0
z
" style="fill:#ffffff;"/>
  </g>
  <g id="axes_1">
   <g id="patch_2">
    <path d="
M44.4691 393.62
L493.2 393.62
L493.2 10.8
L44.4691 10.8
z
" style="fill:#eeeeee;"/>
   </g>
   <g id="matplotlib.axis_1">
    <g id="xtick_1">
     <g id="line2d_1">
      <path clip-path="url(#p4ab6bb4454)" d="
M64.8659 393.62
L64.8659 10.8" style="fill:none;stroke:#000000;stroke-dasharray:1.000000,3.000000;stroke-dashoffset:0.0;stroke-linecap:butt;stroke-width:0.5;"/>
     </g>
     <g id="line2d_2">
      <defs>
       <path d="
M0 0
L0 0" id="m080760d0c3" style="stroke:#555555;stroke-linecap:butt;stroke-width:0.5;"/>
      </defs>
      <g>
       <use style="fill:#555555;stroke:#555555;stroke-linecap:butt;stroke-width:0.5;" x="64.8659232955" xlink:href="#m080760d0c3" y="393.62"/>
      </g>
     </g>
     <g id="line2d_3">
      <g>
       <use style="fill:#555555;stroke:#555555;stroke-linecap:butt;stroke-width:0.5;" x="64.8659232955" xlink:href="#m080760d0c3" y="10.8"/>
      </g>
     </g>
     <g id="text_1">
      <!-- 0.0 -->
      <defs>
       <path d="
M19.2812 0
L7.46875 0
L7.46875 11.375
L19.2812 11.375
z
" id="Roboto-Medium-2e"/>
       <path d="
M51.7031 27.3906
Q51.7031 13.5312 45.4531 6.25
Q39.2031 -1.03125 28.4688 -1.03125
Q17.6719 -1.03125 11.375 6.25
Q5.07812 13.5312 5.07812 27.3906
L5.07812 43.6562
Q5.07812 57.4688 11.3281 64.7969
Q17.5781 72.125 28.375 72.125
Q39.1094 72.125 45.4062 64.7969
Q51.7031 57.4688 51.7031 43.6562
z

M39.8438 45.4531
Q39.8438 54.2031 36.9062 58.3906
Q33.9844 62.5938 28.375 62.5938
Q22.75 62.5938 19.8438 58.3906
Q16.9375 54.2031 16.9375 45.4531
L16.9375 25.6875
Q16.9375 16.8906 19.8906 12.6719
Q22.8594 8.45312 28.4688 8.45312
Q34.0781 8.45312 36.9531 12.6406
Q39.8438 16.8438 39.8438 25.6875
z
" id="Roboto-Medium-30"/>
      </defs>
      <g style="fill:#555555;" transform="translate(58.2956107955 406.8325)scale(0.1 -0.1)">
       <use xlink:href="#Roboto-Medium-30"/>
       <use x="56.8359375" xlink:href="#Roboto-Medium-2e"/>
       <use x="84.765625" xlink:href="#Roboto-Medium-30"/>
      </g>
     </g>
    </g>
    <g id="xtick_2">
     <g id="line2d_4">
      <path clip-path="url(#p4ab6bb4454)" d="
M146.453 393.62
L146.453 10.8" style="fill:none;stroke:#000000;stroke-dasharray:1.000000,3.000000;stroke-dashoffset:0.0;stroke-linecap:butt;stroke-width:0.5;"/>
     </g>
     <g id="line2d_5">
      <g>
       <use style="fill:#555555;stroke:#555555;stroke-linecap:butt;stroke-width:0.5;" x="146.453366477" xlink:href="#m080760d0c3" y="393.62"/>
      </g>
     </g>
     <g id="line2d_6">
      <g>
       <use style="fill:#555555;stroke:#555555;stroke-linecap:butt;stroke-width:0.5;" x="146.453366477" xlink:href="#m080760d0c3" y="10.8"/>
      </g>
     </g>
     <g id="text_2">
      <!-- 0.2 -->
      <defs>
       <path d="
M52.5469 0
L5.32812 0
L5.32812 8.15625
L28.4688 33.4062
Q34.125 39.5938 36.2656 43.5781
Q38.4219 47.5625 38.4219 51.375
Q38.4219 56.1562 35.6406 59.375
Q32.8594 62.5938 28.125 62.5938
Q21.875 62.5938 18.8438 59.0781
Q15.8281 55.5625 15.8281 49.4219
L4.34375 49.4219
L4.25 49.7031
Q4 59.1875 10.4375 65.6562
Q16.8906 72.125 28.125 72.125
Q38.375 72.125 44.3281 66.4531
Q50.2969 60.7969 50.2969 51.6562
Q50.2969 45.5625 46.8438 39.9844
Q43.4062 34.4219 36.1875 26.4688
L20.3594 9.76562
L20.5156 9.46875
L52.5469 9.46875
z
" id="Roboto-Medium-32"/>
      </defs>
      <g style="fill:#555555;" transform="translate(139.840866477 406.8325)scale(0.1 -0.1)">
       <use xlink:href="#Roboto-Medium-30"/>
       <use x="56.8359375" xlink:href="#Roboto-Medium-2e"/>
       <use x="84.765625" xlink:href="#Roboto-Medium-32"/>
      </g>
     </g>
    </g>
    <g id="xtick_3">
     <g id="line2d_7">
      <path clip-path="url(#p4ab6bb4454)" d="
M228.041 393.62
L228.041 10.8" style="fill:none;stroke:#000000;stroke-dasharray:1.000000,3.000000;stroke-dashoffset:0.0;stroke-linecap:butt;stroke-width:0.5;"/>
     </g>
     <g id="line2d_8">
      <g>
       <use style="fill:#555555;stroke:#555555;stroke-linecap:butt;stroke-width:0.5;" x="228.040809659" xlink:href="#m080760d0c3" y="393.62"/>
      </g>
     </g>
     <g id="line2d_9">
      <g>
       <use style="fill:#555555;stroke:#555555;stroke-linecap:butt;stroke-width:0.5;" x="228.040809659" xlink:href="#m080760d0c3" y="10.8"/>
      </g>
     </g>
     <g id="text_3">
      <!-- 0.4 -->
      <defs>
       <path d="
M45.3594 25.3438
L54.3438 25.3438
L54.3438 15.7656
L45.3594 15.7656
L45.3594 0
L33.5469 0
L33.5469 15.7656
L3.03125 15.7656
L2.73438 23.0469
L33.1562 71.0938
L45.3594 71.0938
z

M14.4531 25.3438
L33.5469 25.3438
L33.5469 54.2031
L33.25 54.2969
L32.2812 52.2031
z
" id="Roboto-Medium-34"/>
      </defs>
      <g style="fill:#555555;" transform="translate(221.338465909 406.8325)scale(0.1 -0.1)">
       <use xlink:href="#Roboto-Medium-30"/>
       <use x="56.8359375" xlink:href="#Roboto-Medium-2e"/>
       <use x="84.765625" xlink:href="#Roboto-Medium-34"/>
      </g>
     </g>
    </g>
    <g id="xtick_4">
     <g id="line2d_10">
      <path clip-path="url(#p4ab6bb4454)" d="
M309.628 393.62
L309.628 10.8" style="fill:none;stroke:#000000;stroke-dasharray:1.000000,3.000000;stroke-dashoffset:0.0;stroke-linecap:butt;stroke-width:0.5;"/>
     </g>
     <g id="line2d_11">
      <g>
       <use style="fill:#555555;stroke:#555555;stroke-linecap:butt;stroke-width:0.5;" x="309.628252841" xlink:href="#m080760d0c3" y="393.62"/>
      </g>
     </g>
     <g id="line2d_12">
      <g>
       <use style="fill:#555555;stroke:#555555;stroke-linecap:butt;stroke-width:0.5;" x="309.628252841" xlink:href="#m080760d0c3" y="10.8"/>
      </g>
     </g>
     <g id="text_4">
      <!-- 0.6 -->
      <defs>
       <path d="
M33.2031 72.125
Q37.0156 72.125 40.5312 71.3125
Q44.0469 70.5156 46.8281 69.1875
L44.5781 60.0156
Q41.8438 61.1875 39.25 61.8438
Q36.6719 62.5 33.25 62.5
Q26.125 62.5 21.7969 57
Q17.4844 51.5156 17.4844 42.1875
L17.4844 41.8438
Q20.4062 44.5312 24.2812 46
Q28.1719 47.4688 32.8125 47.4688
Q42.3281 47.4688 47.875 40.7969
Q53.4219 34.125 53.4219 23.8281
Q53.4219 12.9375 47.0625 5.95312
Q40.7188 -1.03125 30.4219 -1.03125
Q19.5781 -1.03125 12.625 6.57812
Q5.67188 14.2031 5.67188 27.875
L5.67188 41.4531
Q5.67188 55.3281 13.5 63.7188
Q21.3438 72.125 33.2031 72.125
M29.8906 38.2344
Q25.3906 38.2344 22.2656 36.6406
Q19.1406 35.0625 17.4844 32.3281
L17.4844 27.25
Q17.4844 18.2188 21.1094 13.3281
Q24.75 8.45312 30.4219 8.45312
Q35.5938 8.45312 38.5625 12.8906
Q41.5469 17.3281 41.5469 23.8281
Q41.5469 30.2188 38.4219 34.2188
Q35.2969 38.2344 29.8906 38.2344" id="Roboto-Medium-36"/>
      </defs>
      <g style="fill:#555555;" transform="translate(302.972002841 406.8325)scale(0.1 -0.1)">
       <use xlink:href="#Roboto-Medium-30"/>
       <use x="56.8359375" xlink:href="#Roboto-Medium-2e"/>
       <use x="84.765625" xlink:href="#Roboto-Medium-36"/>
      </g>
     </g>
    </g>
    <g id="xtick_5">
     <g id="line2d_13">
      <path clip-path="url(#p4ab6bb4454)" d="
M391.216 393.62
L391.216 10.8" style="fill:none;stroke:#000000;stroke-dasharray:1.000000,3.000000;stroke-dashoffset:0.0;stroke-linecap:butt;stroke-width:0.5;"/>
     </g>
     <g id="line2d_14">
      <g>
       <use style="fill:#555555;stroke:#555555;stroke-linecap:butt;stroke-width:0.5;" x="391.215696023" xlink:href="#m080760d0c3" y="393.62"/>
      </g>
     </g>
     <g id="line2d_15">
      <g>
       <use style="fill:#555555;stroke:#555555;stroke-linecap:butt;stroke-width:0.5;" x="391.215696023" xlink:href="#m080760d0c3" y="10.8"/>
      </g>
     </g>
     <g id="text_5">
      <!-- 0.8 -->
      <defs>
       <path d="
M50.25 52.3438
Q50.25 46.9688 47.3125 42.8125
Q44.3906 38.6719 39.3594 36.4688
Q45.1719 34.2344 48.6094 29.7344
Q52.0469 25.25 52.0469 19.3906
Q52.0469 9.46875 45.5 4.21875
Q38.9688 -1.03125 28.4688 -1.03125
Q17.8281 -1.03125 11.2812 4.21875
Q4.73438 9.46875 4.73438 19.3906
Q4.73438 25.25 8.125 29.7344
Q11.5312 34.2344 17.4375 36.5312
Q12.3594 38.6719 9.46875 42.7969
Q6.59375 46.9219 6.59375 52.3438
Q6.59375 61.8125 12.5781 66.9688
Q18.5625 72.125 28.375 72.125
Q38.0938 72.125 44.1719 66.9688
Q50.25 61.8125 50.25 52.3438
M40.2344 19.9688
Q40.2344 25.2031 36.8906 28.4688
Q33.5469 31.7344 28.375 31.7344
Q23.0938 31.7344 19.8438 28.4844
Q16.6094 25.25 16.6094 19.9688
Q16.6094 14.5938 19.8281 11.5156
Q23.0469 8.45312 28.4688 8.45312
Q33.6875 8.45312 36.9531 11.5469
Q40.2344 14.6562 40.2344 19.9688
M38.375 51.9062
Q38.375 56.5938 35.5938 59.5938
Q32.8125 62.5938 28.375 62.5938
Q23.7812 62.5938 21.1094 59.6875
Q18.4531 56.7812 18.4531 51.9062
Q18.4531 47.0781 21.1562 44.1719
Q23.875 41.2656 28.4688 41.2656
Q32.9531 41.2656 35.6562 44.1719
Q38.375 47.0781 38.375 51.9062" id="Roboto-Medium-38"/>
      </defs>
      <g style="fill:#555555;" transform="translate(384.628196023 406.8325)scale(0.1 -0.1)">
       <use xlink:href="#Roboto-Medium-30"/>
       <use x="56.8359375" xlink:href="#Roboto-Medium-2e"/>
       <use x="84.765625" xlink:href="#Roboto-Medium-38"/>
      </g>
     </g>
    </g>
    <g id="xtick_6">
     <g id="line2d_16">
      <path clip-path="url(#p4ab6bb4454)" d="
M472.803 393.62
L472.803 10.8" style="fill:none;stroke:#000000;stroke-dasharray:1.000000,3.000000;stroke-dashoffset:0.0;stroke-linecap:butt;stroke-width:0.5;"/>
     </g>
     <g id="line2d_17">
      <g>
       <use style="fill:#555555;stroke:#555555;stroke-linecap:butt;stroke-width:0.5;" x="472.803139205" xlink:href="#m080760d0c3" y="393.62"/>
      </g>
     </g>
     <g id="line2d_18">
      <g>
       <use style="fill:#555555;stroke:#555555;stroke-linecap:butt;stroke-width:0.5;" x="472.803139205" xlink:href="#m080760d0c3" y="10.8"/>
      </g>
     </g>
     <g id="text_6">
      <!-- 1.0 -->
      <defs>
       <path d="
M35.0625 0
L23.1875 0
L23.1875 59.8125
L8.73438 59.8125
L8.73438 68.5625
L35.0625 71.0938
z
" id="Roboto-Medium-31"/>
      </defs>
      <g style="fill:#555555;" transform="translate(466.415639205 406.8325)scale(0.1 -0.1)">
       <use xlink:href="#Roboto-Medium-31"/>
       <use x="56.8359375" xlink:href="#Roboto-Medium-2e"/>
       <use x="84.765625" xlink:href="#Roboto-Medium-30"/>
      </g>
     </g>
    </g>
    <g id="text_7">
     <!-- False Positive Rate -->
     <defs>
      <path d="
M40.7656 12.9375
Q40.7656 17.1406 37.1719 20.5781
Q33.5938 24.0312 24.6562 25.9844
Q15.2344 27.9844 11 31.125
Q6.78125 34.2812 6.78125 40.4844
Q6.78125 46.1406 11.5625 49.9688
Q16.3594 53.8125 24.4688 53.8125
Q33.2031 53.8125 38.2344 49.7031
Q43.2656 45.6094 43.0156 39.0156
L42.9219 38.7188
L40.6719 38.7188
Q40.6719 43.8906 36.2969 47.5312
Q31.9375 51.1719 24.4688 51.1719
Q17.0469 51.1719 13.2344 47.9688
Q9.42188 44.7812 9.42188 40.5781
Q9.42188 36.4219 12.6406 33.4844
Q15.875 30.5625 25.4375 28.375
Q34.2812 26.3125 38.8438 22.7656
Q43.4062 19.2344 43.4062 12.8906
Q43.4062 6.6875 38.3281 2.82812
Q33.25 -1.03125 24.8594 -1.03125
Q15.625 -1.03125 10.375 3.09375
Q5.125 7.23438 5.46875 13.1406
L5.5625 13.4219
L7.71875 13.4219
Q8.10938 7.17188 13.0781 4.39062
Q18.0625 1.60938 24.8594 1.60938
Q32.1719 1.60938 36.4688 5.03125
Q40.7656 8.45312 40.7656 12.9375" id="Roboto-Thin-73"/>
      <path d="
M41.5469 9.76562
Q38.8125 4.98438 33.3906 1.96875
Q27.9844 -1.03125 20.2656 -1.03125
Q12.8906 -1.03125 8.6875 3
Q4.5 7.03125 4.5 13.875
Q4.5 20.5156 10.7656 25
Q17.0469 29.5 26.4688 29.5
L41.5469 29.5
L41.5469 37.2031
Q41.5469 43.7969 37.3281 47.4844
Q33.1094 51.1719 25.4375 51.1719
Q18.2656 51.1719 13.8906 47.7031
Q9.51562 44.2344 9.51562 38.7656
L7.32812 38.875
L7.23438 39.1094
Q6.9375 45.2656 12.0156 49.5312
Q17.0938 53.8125 25.4375 53.8125
Q33.9375 53.8125 39.0625 49.5156
Q44.1875 45.2188 44.1875 37.1094
L44.1875 10.6406
Q44.1875 7.85938 44.5 5.21875
Q44.8281 2.59375 45.5625 0
L42.625 0
Q42 3.46875 41.7656 5.20312
Q41.5469 6.9375 41.5469 8.9375
z

M20.2656 1.5625
Q28.125 1.5625 33.5625 5.03125
Q39.0156 8.5 41.5469 14.9375
L41.5469 26.8125
L26.6094 26.8125
Q18.4062 26.8125 12.7656 23.0156
Q7.125 19.2344 7.125 13.6719
Q7.125 8.34375 10.7188 4.95312
Q14.3125 1.5625 20.2656 1.5625" id="Roboto-Thin-61"/>
      <path d="
M13.875 67.0938
L13.875 52.8281
L26.8594 52.8281
L26.8594 50.1406
L13.875 50.1406
L13.875 13.625
Q13.875 7.125 16.0625 4.35938
Q18.2656 1.60938 21.875 1.60938
Q23.1875 1.60938 24.2188 1.70312
Q25.25 1.8125 27.0469 2.04688
L27.5469 -0.34375
Q26.3125 -0.734375 25 -0.875
Q23.6875 -1.03125 22.0156 -1.03125
Q16.7031 -1.03125 13.9375 2.4375
Q11.1875 5.90625 11.1875 13.625
L11.1875 50.1406
L1.42188 50.1406
L1.42188 52.8281
L11.1875 52.8281
L11.1875 67.0938
z
" id="Roboto-Thin-74"/>
      <path d="
M26.4219 -1.03125
Q17.3906 -1.03125 10.8125 6.26562
Q4.25 13.5781 4.25 24.4219
L4.25 27.5469
Q4.25 38.9219 10.5938 46.3594
Q16.9375 53.8125 26.2656 53.8125
Q35.2031 53.8125 40.8438 47.9531
Q46.4844 42.0938 46.4844 32.2344
L46.4844 28.1719
L6.89062 28.1719
L6.89062 27.5469
L6.89062 24.4219
Q6.89062 14.8438 12.5 8.21875
Q18.1094 1.60938 26.4219 1.60938
Q32.3281 1.60938 36.2969 3.21875
Q40.2812 4.82812 43.1094 8.0625
L44.5312 6
Q41.4062 2.54688 36.9375 0.75
Q32.4688 -1.03125 26.4219 -1.03125
M26.2656 51.1719
Q18.4062 51.1719 13.1719 45.4375
Q7.95312 39.7031 7.28125 31.1094
L7.42188 30.8125
L43.8438 30.8125
L43.8438 32.4219
Q43.8438 40.4844 38.9531 45.8281
Q34.0781 51.1719 26.2656 51.1719" id="Roboto-Thin-65"/>
      <path d="
M21.2344 11.1875
L23.7344 4.04688
L24.0312 4.04688
L26.5625 11.1875
L42.8281 52.8281
L45.6562 52.8281
L25.0938 0.046875
L25.1406 0
L22.6094 0
L2.09375 52.8281
L4.9375 52.8281
z
" id="Roboto-Thin-76"/>
      <path d="
M11.6719 0
L9.03125 0
L9.03125 52.8281
L11.6719 52.8281
z

M11.6719 69.4375
L9.03125 69.4375
L9.03125 76.1719
L11.6719 76.1719
z
" id="Roboto-Thin-69"/>
      <path id="Roboto-Thin-20"/>
      <path d="
M11.6719 0
L9.03125 0
L9.03125 76.1719
L11.6719 76.1719
z
" id="Roboto-Thin-6c"/>
      <path d="
M4.25 27.4375
Q4.25 39.0625 10.6719 46.4375
Q17.0938 53.8125 27.3438 53.8125
Q37.6406 53.8125 44.0625 46.4375
Q50.4844 39.0625 50.4844 27.4375
L50.4844 25.3906
Q50.4844 13.7188 44.0625 6.34375
Q37.6406 -1.03125 27.4375 -1.03125
Q17.1406 -1.03125 10.6875 6.34375
Q4.25 13.7188 4.25 25.3906
z

M6.89062 25.3906
Q6.89062 15.4375 12.4531 8.51562
Q18.0156 1.60938 27.4375 1.60938
Q36.7188 1.60938 42.2812 8.54688
Q47.8594 15.4844 47.8594 25.3906
L47.8594 27.4375
Q47.8594 37.1562 42.2344 44.1562
Q36.625 51.1719 27.3438 51.1719
Q18.0156 51.1719 12.4531 44.1562
Q6.89062 37.1562 6.89062 27.4375
z
" id="Roboto-Thin-6f"/>
      <path d="
M12.1562 33.3438
L12.1562 -0.046875
L9.51562 -0.046875
L9.51562 71.0469
L32.1719 71.0469
Q43.4062 71.0469 49.4531 66.1875
Q55.5156 61.3281 55.5156 52
Q55.5156 46 51.6875 41.0938
Q47.8594 36.1875 41.2188 34.7188
Q48.875 33.4062 52.1875 29.1094
Q55.5156 24.8125 55.5156 18.1094
L55.5156 11.4219
Q55.5156 8.10938 56.3125 5.46875
Q57.125 2.82812 58.9844 1.17188
L58.9844 -0.046875
L56.3906 -0.046875
Q54.6406 1.95312 53.75 4.90625
Q52.875 7.85938 52.875 11.5312
L52.875 18.0156
Q52.875 25.25 47.9219 29.2969
Q42.9688 33.3438 33.7969 33.3438
z

M12.1562 35.9844
L31.6875 35.9844
Q42.5781 35.9844 47.7188 40.5781
Q52.875 45.1719 52.875 52
Q52.875 59.9688 47.6719 64.1875
Q42.4844 68.4062 32.1719 68.4062
L12.1562 68.4062
z
" id="Roboto-Thin-52"/>
      <path d="
M48.8281 34.9688
L12.4062 34.9688
L12.4062 0
L9.76562 0
L9.76562 71.0938
L53.8125 71.0938
L53.8125 68.4531
L12.4062 68.4531
L12.4062 37.7031
L48.8281 37.7031
z
" id="Roboto-Thin-46"/>
      <path d="
M12.4062 30.5156
L12.4062 0
L9.76562 0
L9.76562 71.0938
L31.9844 71.0938
Q43.0156 71.0938 48.9688 65.5469
Q54.9375 60.0156 54.9375 50.8281
Q54.9375 41.5469 49 36.0312
Q43.0625 30.5156 31.9844 30.5156
z

M12.4062 33.1562
L31.9844 33.1562
Q42.0938 33.1562 47.1875 38.1875
Q52.2969 43.2188 52.2969 50.7344
Q52.2969 58.4531 47.2188 63.4531
Q42.1406 68.4531 31.9844 68.4531
L12.4062 68.4531
z
" id="Roboto-Thin-50"/>
     </defs>
     <g style="fill:#555555;" transform="translate(220.29265625 421.07625)scale(0.12 -0.12)">
      <use xlink:href="#Roboto-Thin-46"/>
      <use x="57.2265625" xlink:href="#Roboto-Thin-61"/>
      <use x="110.009765625" xlink:href="#Roboto-Thin-6c"/>
      <use x="130.615234375" xlink:href="#Roboto-Thin-73"/>
      <use x="180.37109375" xlink:href="#Roboto-Thin-65"/>
      <use x="230.76171875" xlink:href="#Roboto-Thin-20"/>
      <use x="254.6875" xlink:href="#Roboto-Thin-50"/>
      <use x="314.74609375" xlink:href="#Roboto-Thin-6f"/>
      <use x="369.482421875" xlink:href="#Roboto-Thin-73"/>
      <use x="419.23828125" xlink:href="#Roboto-Thin-69"/>
      <use x="439.84375" xlink:href="#Roboto-Thin-74"/>
      <use x="470.751953125" xlink:href="#Roboto-Thin-69"/>
      <use x="491.357421875" xlink:href="#Roboto-Thin-76"/>
      <use x="539.111328125" xlink:href="#Roboto-Thin-65"/>
      <use x="589.501953125" xlink:href="#Roboto-Thin-20"/>
      <use x="613.427734375" xlink:href="#Roboto-Thin-52"/>
      <use x="678.857421875" xlink:href="#Roboto-Thin-61"/>
      <use x="731.640625" xlink:href="#Roboto-Thin-74"/>
      <use x="762.548828125" xlink:href="#Roboto-Thin-65"/>
     </g>
    </g>
   </g>
   <g id="matplotlib.axis_2">
    <g id="ytick_1">
     <g id="line2d_19">
      <path clip-path="url(#p4ab6bb4454)" d="
M44.4691 376.219
L493.2 376.219" style="fill:none;stroke:#000000;stroke-dasharray:1.000000,3.000000;stroke-dashoffset:0.0;stroke-linecap:butt;stroke-width:0.5;"/>
     </g>
     <g id="line2d_20">
      <g>
       <use style="fill:#555555;stroke:#555555;stroke-linecap:butt;stroke-width:0.5;" x="44.4690625" xlink:href="#m080760d0c3" y="376.219090909"/>
      </g>
     </g>
     <g id="line2d_21">
      <g>
       <use style="fill:#555555;stroke:#555555;stroke-linecap:butt;stroke-width:0.5;" x="493.2" xlink:href="#m080760d0c3" y="376.219090909"/>
      </g>
     </g>
     <g id="text_8">
      <!-- 0.0 -->
      <g style="fill:#555555;" transform="translate(25.3284375 379.773778409)scale(0.1 -0.1)">
       <use xlink:href="#Roboto-Medium-30"/>
       <use x="56.8359375" xlink:href="#Roboto-Medium-2e"/>
       <use x="84.765625" xlink:href="#Roboto-Medium-30"/>
      </g>
     </g>
    </g>
    <g id="ytick_2">
     <g id="line2d_22">
      <path clip-path="url(#p4ab6bb4454)" d="
M44.4691 306.615
L493.2 306.615" style="fill:none;stroke:#000000;stroke-dasharray:1.000000,3.000000;stroke-dashoffset:0.0;stroke-linecap:butt;stroke-width:0.5;"/>
     </g>
     <g id="line2d_23">
      <g>
       <use style="fill:#555555;stroke:#555555;stroke-linecap:butt;stroke-width:0.5;" x="44.4690625" xlink:href="#m080760d0c3" y="306.615454545"/>
      </g>
     </g>
     <g id="line2d_24">
      <g>
       <use style="fill:#555555;stroke:#555555;stroke-linecap:butt;stroke-width:0.5;" x="493.2" xlink:href="#m080760d0c3" y="306.615454545"/>
      </g>
     </g>
     <g id="text_9">
      <!-- 0.2 -->
      <g style="fill:#555555;" transform="translate(25.2440625 310.170142045)scale(0.1 -0.1)">
       <use xlink:href="#Roboto-Medium-30"/>
       <use x="56.8359375" xlink:href="#Roboto-Medium-2e"/>
       <use x="84.765625" xlink:href="#Roboto-Medium-32"/>
      </g>
     </g>
    </g>
    <g id="ytick_3">
     <g id="line2d_25">
      <path clip-path="url(#p4ab6bb4454)" d="
M44.4691 237.012
L493.2 237.012" style="fill:none;stroke:#000000;stroke-dasharray:1.000000,3.000000;stroke-dashoffset:0.0;stroke-linecap:butt;stroke-width:0.5;"/>
     </g>
     <g id="line2d_26">
      <g>
       <use style="fill:#555555;stroke:#555555;stroke-linecap:butt;stroke-width:0.5;" x="44.4690625" xlink:href="#m080760d0c3" y="237.011818182"/>
      </g>
     </g>
     <g id="line2d_27">
      <g>
       <use style="fill:#555555;stroke:#555555;stroke-linecap:butt;stroke-width:0.5;" x="493.2" xlink:href="#m080760d0c3" y="237.011818182"/>
      </g>
     </g>
     <g id="text_10">
      <!-- 0.4 -->
      <g style="fill:#555555;" transform="translate(25.064375 240.566505682)scale(0.1 -0.1)">
       <use xlink:href="#Roboto-Medium-30"/>
       <use x="56.8359375" xlink:href="#Roboto-Medium-2e"/>
       <use x="84.765625" xlink:href="#Roboto-Medium-34"/>
      </g>
     </g>
    </g>
    <g id="ytick_4">
     <g id="line2d_28">
      <path clip-path="url(#p4ab6bb4454)" d="
M44.4691 167.408
L493.2 167.408" style="fill:none;stroke:#000000;stroke-dasharray:1.000000,3.000000;stroke-dashoffset:0.0;stroke-linecap:butt;stroke-width:0.5;"/>
     </g>
     <g id="line2d_29">
      <g>
       <use style="fill:#555555;stroke:#555555;stroke-linecap:butt;stroke-width:0.5;" x="44.4690625" xlink:href="#m080760d0c3" y="167.408181818"/>
      </g>
     </g>
     <g id="line2d_30">
      <g>
       <use style="fill:#555555;stroke:#555555;stroke-linecap:butt;stroke-width:0.5;" x="493.2" xlink:href="#m080760d0c3" y="167.408181818"/>
      </g>
     </g>
     <g id="text_11">
      <!-- 0.6 -->
      <g style="fill:#555555;" transform="translate(25.1565625 170.962869318)scale(0.1 -0.1)">
       <use xlink:href="#Roboto-Medium-30"/>
       <use x="56.8359375" xlink:href="#Roboto-Medium-2e"/>
       <use x="84.765625" xlink:href="#Roboto-Medium-36"/>
      </g>
     </g>
    </g>
    <g id="ytick_5">
     <g id="line2d_31">
      <path clip-path="url(#p4ab6bb4454)" d="
M44.4691 97.8045
L493.2 97.8045" style="fill:none;stroke:#000000;stroke-dasharray:1.000000,3.000000;stroke-dashoffset:0.0;stroke-linecap:butt;stroke-width:0.5;"/>
     </g>
     <g id="line2d_32">
      <g>
       <use style="fill:#555555;stroke:#555555;stroke-linecap:butt;stroke-width:0.5;" x="44.4690625" xlink:href="#m080760d0c3" y="97.8045454545"/>
      </g>
     </g>
     <g id="line2d_33">
      <g>
       <use style="fill:#555555;stroke:#555555;stroke-linecap:butt;stroke-width:0.5;" x="493.2" xlink:href="#m080760d0c3" y="97.8045454545"/>
      </g>
     </g>
     <g id="text_12">
      <!-- 0.8 -->
      <g style="fill:#555555;" transform="translate(25.2940625 101.359232955)scale(0.1 -0.1)">
       <use xlink:href="#Roboto-Medium-30"/>
       <use x="56.8359375" xlink:href="#Roboto-Medium-2e"/>
       <use x="84.765625" xlink:href="#Roboto-Medium-38"/>
      </g>
     </g>
    </g>
    <g id="ytick_6">
     <g id="line2d_34">
      <path clip-path="url(#p4ab6bb4454)" d="
M44.4691 28.2009
L493.2 28.2009" style="fill:none;stroke:#000000;stroke-dasharray:1.000000,3.000000;stroke-dashoffset:0.0;stroke-linecap:butt;stroke-width:0.5;"/>
     </g>
     <g id="line2d_35">
      <g>
       <use style="fill:#555555;stroke:#555555;stroke-linecap:butt;stroke-width:0.5;" x="44.4690625" xlink:href="#m080760d0c3" y="28.2009090909"/>
      </g>
     </g>
     <g id="line2d_36">
      <g>
       <use style="fill:#555555;stroke:#555555;stroke-linecap:butt;stroke-width:0.5;" x="493.2" xlink:href="#m080760d0c3" y="28.2009090909"/>
      </g>
     </g>
     <g id="text_13">
      <!-- 1.0 -->
      <g style="fill:#555555;" transform="translate(25.6940625 31.7555965909)scale(0.1 -0.1)">
       <use xlink:href="#Roboto-Medium-31"/>
       <use x="56.8359375" xlink:href="#Roboto-Medium-2e"/>
       <use x="84.765625" xlink:href="#Roboto-Medium-30"/>
      </g>
     </g>
    </g>
    <g id="text_14">
     <!-- True Positive Rate -->
     <defs>
      <path d="
M31.6875 50.9219
L28.2656 51.2188
Q21.1875 51.2188 16.7656 46.6562
Q12.3594 42.0938 11.0312 34.625
L11.0312 0
L8.40625 0
L8.40625 52.8281
L10.5469 52.8281
L11.0312 43.6562
L11.0312 41.8438
Q13.2344 47.5156 17.5781 50.6562
Q21.9219 53.8125 28.2656 53.8125
Q29.3906 53.8125 30.3438 53.6406
Q31.2969 53.4688 31.9844 53.2656
z
" id="Roboto-Thin-72"/>
      <path d="
M43.8906 9.46875
Q41.4062 4.4375 36.7812 1.70312
Q32.1719 -1.03125 25.5938 -1.03125
Q17.4375 -1.03125 12.8125 4.75
Q8.20312 10.5469 8.20312 22.7031
L8.20312 52.8281
L10.8438 52.8281
L10.8438 22.6094
Q10.8438 11.8594 14.7969 6.73438
Q18.75 1.60938 25.4844 1.60938
Q33.7344 1.60938 38.1562 5.65625
Q42.5781 9.71875 43.7969 16.4062
L43.7969 52.8281
L46.4844 52.8281
L46.4844 0
L44.2812 0
z
" id="Roboto-Thin-75"/>
      <path d="
M57.0781 68.4531
L31.2031 68.4531
L31.2031 0
L28.5625 0
L28.5625 68.4531
L2.6875 68.4531
L2.6875 71.0938
L57.0781 71.0938
z
" id="Roboto-Thin-54"/>
     </defs>
     <g style="fill:#555555;" transform="translate(20.064375 248.4503125)rotate(-90.0)scale(0.12 -0.12)">
      <use xlink:href="#Roboto-Thin-54"/>
      <use x="56.140625" xlink:href="#Roboto-Thin-72"/>
      <use x="89.34375" xlink:href="#Roboto-Thin-75"/>
      <use x="144.080078125" xlink:href="#Roboto-Thin-65"/>
      <use x="194.470703125" xlink:href="#Roboto-Thin-20"/>
      <use x="218.396484375" xlink:href="#Roboto-Thin-50"/>
      <use x="278.455078125" xlink:href="#Roboto-Thin-6f"/>
      <use x="333.19140625" xlink:href="#Roboto-Thin-73"/>
      <use x="382.947265625" xlink:href="#Roboto-Thin-69"/>
      <use x="403.552734375" xlink:href="#Roboto-Thin-74"/>
      <use x="434.4609375" xlink:href="#Roboto-Thin-69"/>
      <use x="455.06640625" xlink:href="#Roboto-Thin-76"/>
      <use x="502.8203125" xlink:href="#Roboto-Thin-65"/>
      <use x="553.2109375" xlink:href="#Roboto-Thin-20"/>
      <use x="577.13671875" xlink:href="#Roboto-Thin-52"/>
      <use x="642.56640625" xlink:href="#Roboto-Thin-61"/>
      <use x="695.349609375" xlink:href="#Roboto-Thin-74"/>
      <use x="726.2578125" xlink:href="#Roboto-Thin-65"/>
     </g>
    </g>
   </g>
   <g id="line2d_37">
    <path clip-path="url(#p4ab6bb4454)" d="
M64.8659 376.219
L68.9865 330.439
L73.1071 308.812
L77.2277 293.548
L81.3482 273.426
L85.4688 266.88
L89.5894 250.765
L93.71 246.093
L97.8305 241.101
L101.951 231.02
L106.072 227.883
L110.192 219.766
L114.313 208.21
L118.433 202.951
L122.554 200.45
L126.675 187.765
L130.795 183.959
L134.916 180.653
L139.036 172.653
L143.157 166.978
L147.277 163.627
L151.398 160.275
L155.519 157.954
L159.639 152.207
L163.76 148.537
L167.88 145.096
L172.001 137.54
L176.122 132.59
L180.242 130.655
L184.363 128.719
L188.483 126.784
L192.604 124.9
L196.724 121.984
L200.845 118.781
L204.966 117.029
L209.086 115.761
L213.207 109.538
L217.327 104.623
L221.448 102.952
L225.568 101.281
L229.689 99.6091
L233.81 97.9823
L237.93 94.8711
L242.051 92.6487
L246.171 88.983
L250.292 88.1882
L254.413 85.5372
L258.533 82.426
L262.654 77.9813
L266.774 76.5334
L270.895 75.2747
L275.015 74.016
L279.136 72.7573
L283.257 71.1236
L287.377 69.0919
L291.498 65.0917
L295.618 64.1975
L299.739 63.3139
L303.859 61.0915
L307.98 59.1454
L312.101 58.0965
L316.221 57.0476
L320.342 55.9987
L324.462 52.6466
L328.583 51.3132
L332.703 50.8688
L336.824 49.8909
L340.945 49.0909
L345.065 47.7575
L349.186 45.0907
L353.306 43.0158
L357.427 42.4667
L361.548 41.9176
L365.668 41.3685
L369.789 40.6007
L373.909 39.3126
L378.03 38.6512
L382.15 38.4237
L386.271 37.7681
L390.392 37.3445
L394.512 36.9209
L398.633 36.4973
L402.753 36.0737
L406.874 35.6501
L410.994 35.2265
L415.115 34.8029
L419.236 34.3793
L423.356 33.9175
L427.477 32.6456
L431.597 32.2011
L435.718 31.7445
L439.839 31.1785
L443.959 30.6125
L448.08 30.0464
L452.2 29.9788
L456.321 29.5343
L460.441 29.0898
L464.562 28.9495
L468.683 28.4823
L472.803 28.2009" style="fill:none;stroke:#348abd;stroke-width:2.0;"/>
   </g>
   <g id="line2d_38">
    <path clip-path="url(#p4ab6bb4454)" d="
M64.8659 376.219
L68.9865 365.766
L73.1071 355.312
L77.2277 344.858
L81.3482 334.405
L85.4688 323.951
L89.5894 313.498
L93.71 303.044
L97.8305 292.591
L101.951 283.56
L106.072 274.807
L110.192 266.054
L114.313 257.301
L118.433 248.548
L122.554 239.796
L126.675 232.302
L130.795 226.125
L134.916 219.949
L139.036 213.772
L143.157 207.595
L147.277 201.418
L151.398 195.241
L155.519 189.064
L159.639 184.593
L163.76 180.397
L167.88 176.201
L172.001 172.004
L176.122 167.808
L180.242 163.611
L184.363 159.415
L188.483 155.218
L192.604 151.022
L196.724 146.825
L200.845 142.629
L204.966 139.234
L209.086 136.12
L213.207 133.007
L217.327 129.893
L221.448 126.779
L225.568 123.665
L229.689 120.551
L233.81 117.438
L237.93 114.324
L242.051 111.21
L246.171 108.096
L250.292 104.982
L254.413 102.825
L258.533 100.781
L262.654 98.7379
L266.774 96.6946
L270.895 94.6514
L275.015 92.6081
L279.136 90.5648
L283.257 88.5215
L287.377 86.4782
L291.498 84.4349
L295.618 82.3916
L299.739 80.2382
L303.859 78.0055
L307.98 75.7728
L312.101 73.5402
L316.221 71.3075
L320.342 69.0749
L324.462 66.8422
L328.583 64.6096
L332.703 62.3769
L336.824 60.1443
L340.945 58.9525
L345.065 57.9783
L349.186 57.0042
L353.306 56.0301
L357.427 55.056
L361.548 54.0819
L365.668 53.1077
L369.789 52.1336
L373.909 51.1595
L378.03 50.1898
L382.15 49.2338
L386.271 48.2777
L390.392 47.3217
L394.512 46.3656
L398.633 45.4096
L402.753 44.4536
L406.874 43.4975
L410.994 42.5415
L415.115 41.5854
L419.236 40.6294
L423.356 39.6734
L427.477 38.7173
L431.597 37.7613
L435.718 36.8053
L439.839 35.8492
L443.959 34.8932
L448.08 33.9371
L452.2 32.9811
L456.321 32.0251
L460.441 31.069
L464.562 30.113
L468.683 29.1569
L472.803 28.2009" style="fill:none;stroke:#a60628;stroke-width:2.0;"/>
   </g>
   <g id="line2d_39">
    <path clip-path="url(#p4ab6bb4454)" d="
M64.8659 376.219
L68.9865 365.996
L73.1071 365.107
L77.2277 348.218
L81.3482 345.106
L85.4688 337.106
L89.5894 330.708
L93.71 320.216
L97.8305 318.438
L101.951 313.024
L106.072 308.216
L110.192 304.215
L114.313 302.882
L118.433 297.104
L122.554 295.77
L126.675 291.326
L130.795 287.77
L134.916 280.659
L139.036 276.214
L143.157 276.214
L147.277 264.213
L151.398 260.657
L155.519 247.323
L159.639 239.768
L163.76 233.545
L167.88 224.938
L172.001 220.655
L176.122 213.988
L180.242 210.084
L184.363 207.522
L188.483 204.96
L192.604 202.398
L196.724 199.837
L200.845 197.275
L204.966 194.713
L209.086 192.152
L213.207 189.59
L217.327 187.028
L221.448 184.466
L225.568 181.905
L229.689 179.343
L233.81 176.781
L237.93 174.219
L242.051 171.658
L246.171 169.096
L250.292 166.534
L254.413 163.973
L258.533 161.411
L262.654 158.849
L266.774 156.287
L270.895 153.726
L275.015 151.164
L279.136 148.602
L283.257 146.04
L287.377 143.479
L291.498 140.917
L295.618 138.355
L299.739 135.794
L303.859 133.232
L307.98 130.67
L312.101 128.108
L316.221 125.547
L320.342 122.985
L324.462 120.423
L328.583 117.861
L332.703 115.3
L336.824 112.738
L340.945 110.176
L345.065 107.614
L349.186 105.053
L353.306 102.491
L357.427 99.9293
L361.548 97.3676
L365.668 94.8058
L369.789 92.2441
L373.909 89.6824
L378.03 87.1207
L382.15 84.5589
L386.271 81.9972
L390.392 79.4355
L394.512 76.8737
L398.633 74.312
L402.753 71.7503
L406.874 69.1886
L410.994 66.6268
L415.115 64.0651
L419.236 61.5034
L423.356 58.9417
L427.477 56.3799
L431.597 53.8182
L435.718 51.2565
L439.839 48.6947
L443.959 46.133
L448.08 43.5713
L452.2 41.0096
L456.321 38.4478
L460.441 35.8861
L464.562 33.3244
L468.683 30.7626
L472.803 28.2009" style="fill:none;stroke:#467821;stroke-width:2.0;"/>
   </g>
   <g id="line2d_40">
    <path clip-path="url(#p4ab6bb4454)" d="
M64.8659 376.219
L68.9865 338.52
L73.1071 318.522
L77.2277 302.926
L81.3482 295.918
L85.4688 280.908
L89.5894 268.514
L93.71 258.395
L97.8305 246.421
L101.951 234.428
L106.072 222.992
L110.192 215.944
L114.313 212.278
L118.433 205.712
L122.554 200.504
L126.675 195.533
L130.795 187.24
L134.916 174.38
L139.036 166.399
L143.157 162.338
L147.277 159.278
L151.398 154.414
L155.519 151.368
L159.639 148.854
L163.76 147.266
L167.88 145.679
L172.001 144.091
L176.122 142.504
L180.242 140.916
L184.363 139.329
L188.483 137.741
L192.604 136.154
L196.724 134.566
L200.845 132.979
L204.966 131.391
L209.086 129.804
L213.207 128.216
L217.327 126.628
L221.448 125.041
L225.568 123.453
L229.689 121.866
L233.81 120.278
L237.93 118.691
L242.051 117.103
L246.171 115.516
L250.292 113.928
L254.413 112.341
L258.533 110.753
L262.654 109.165
L266.774 107.578
L270.895 105.99
L275.015 104.403
L279.136 102.815
L283.257 101.228
L287.377 99.6402
L291.498 98.0527
L295.618 96.4652
L299.739 94.8776
L303.859 93.2901
L307.98 91.7025
L312.101 90.115
L316.221 88.5274
L320.342 86.9399
L324.462 85.3524
L328.583 83.7648
L332.703 82.1773
L336.824 80.5897
L340.945 79.0022
L345.065 77.4147
L349.186 75.8271
L353.306 74.2396
L357.427 72.652
L361.548 71.0645
L365.668 69.477
L369.789 67.8894
L373.909 66.3019
L378.03 64.7143
L382.15 63.1268
L386.271 61.5393
L390.392 59.9517
L394.512 58.3642
L398.633 56.7766
L402.753 55.1891
L406.874 53.6016
L410.994 52.014
L415.115 50.4265
L419.236 48.8389
L423.356 47.2514
L427.477 45.6639
L431.597 44.0763
L435.718 42.4888
L439.839 40.9012
L443.959 39.3137
L448.08 37.7262
L452.2 36.1386
L456.321 34.5511
L460.441 32.9635
L464.562 31.376
L468.683 29.7884
L472.803 28.2009" style="fill:none;stroke:#7a68a6;stroke-width:2.0;"/>
   </g>
   <g id="line2d_41">
    <path clip-path="url(#p4ab6bb4454)" d="
M64.8659 376.219
L68.9865 371.431
L73.1071 366.643
L77.2277 361.855
L81.3482 357.067
L85.4688 352.279
L89.5894 347.491
L93.71 342.703
L97.8305 337.915
L101.951 333.127
L106.072 328.339
L110.192 323.551
L114.313 318.764
L118.433 313.976
L122.554 309.188
L126.675 304.4
L130.795 299.612
L134.916 294.824
L139.036 290.036
L143.157 285.248
L147.277 280.46
L151.398 275.672
L155.519 270.884
L159.639 266.096
L163.76 261.308
L167.88 256.52
L172.001 252.886
L176.122 250.543
L180.242 248.201
L184.363 245.858
L188.483 243.516
L192.604 241.173
L196.724 238.831
L200.845 236.488
L204.966 234.146
L209.086 231.803
L213.207 229.461
L217.327 227.118
L221.448 224.776
L225.568 221.929
L229.689 218.7
L233.81 215.471
L237.93 212.243
L242.051 209.014
L246.171 205.785
L250.292 202.556
L254.413 199.327
L258.533 196.099
L262.654 192.87
L266.774 189.641
L270.895 186.412
L275.015 183.183
L279.136 179.955
L283.257 176.726
L287.377 173.497
L291.498 170.268
L295.618 167.039
L299.739 163.811
L303.859 160.582
L307.98 157.353
L312.101 154.124
L316.221 150.895
L320.342 147.667
L324.462 144.438
L328.583 141.209
L332.703 137.98
L336.824 134.751
L340.945 131.523
L345.065 128.294
L349.186 125.065
L353.306 121.836
L357.427 118.607
L361.548 115.379
L365.668 112.15
L369.789 108.921
L373.909 105.692
L378.03 102.463
L382.15 99.2345
L386.271 96.0057
L390.392 92.7769
L394.512 89.5481
L398.633 86.3193
L402.753 83.0905
L406.874 79.8617
L410.994 76.6329
L415.115 73.4041
L419.236 70.1753
L423.356 66.9465
L427.477 63.7177
L431.597 60.4889
L435.718 57.2601
L439.839 54.0313
L443.959 50.8025
L448.08 47.5737
L452.2 44.3449
L456.321 41.1161
L460.441 37.8873
L464.562 34.6585
L468.683 31.4297
L472.803 28.2009" style="fill:none;stroke:#cf4457;stroke-width:2.0;"/>
   </g>
   <g id="line2d_42">
    <path clip-path="url(#p4ab6bb4454)" d="
M64.8659 376.219
L472.803 28.2009" style="fill:none;stroke:#999999;stroke-dasharray:6.000000,6.000000;stroke-dashoffset:0.0;stroke-linecap:butt;stroke-width:2.0;"/>
   </g>
   <g id="patch_3">
    <path d="
M44.4691 10.8
L493.2 10.8" style="fill:none;stroke:#bcbcbc;"/>
   </g>
   <g id="patch_4">
    <path d="
M493.2 393.62
L493.2 10.8" style="fill:none;stroke:#bcbcbc;"/>
   </g>
   <g id="patch_5">
    <path d="
M44.4691 393.62
L493.2 393.62" style="fill:none;stroke:#bcbcbc;"/>
   </g>
   <g id="patch_6">
    <path d="
M44.4691 393.62
L44.4691 10.8" style="fill:none;stroke:#bcbcbc;"/>
   </g>
   <g id="legend_1">
    <g id="patch_7">
     <path d="
M278.883 388.62
L486.2 388.62
Q488.2 388.62 488.2 386.62
L488.2 299.118
Q488.2 297.118 486.2 297.118
L278.883 297.118
Q276.883 297.118 276.883 299.118
L276.883 386.62
Q276.883 388.62 278.883 388.62
z
" style="fill:#eeeeee;stroke:#bcbcbc;stroke-width:0.5;"/>
    </g>
    <g id="line2d_43">
     <path d="
M283.883 305.548
L297.883 305.548" style="fill:none;stroke:#348abd;stroke-width:2.0;"/>
    </g>
    <g id="line2d_44"/>
    <g id="text_15">
     <!-- All features (AUC = 0.78) -->
     <defs>
      <path d="
M21 65.6719
L21 52.8281
L30.4688 52.8281
L30.4688 44.0469
L21 44.0469
L21 14.8438
Q21 11.5781 22.4062 10.1875
Q23.8281 8.79688 26.1719 8.79688
Q27.1562 8.79688 28.0781 8.95312
Q29 9.125 29.8281 9.42188
L31.1094 0.734375
Q29.5938 -0.09375 27.4844 -0.5625
Q25.3906 -1.03125 23.1406 -1.03125
Q16.6094 -1.03125 12.8906 2.79688
Q9.1875 6.64062 9.1875 14.8438
L9.1875 44.0469
L1.125 44.0469
L1.125 52.8281
L9.1875 52.8281
L9.1875 65.6719
z
" id="Roboto-Medium-74"/>
      <path d="
M49.1719 38.5781
L7.07812 38.5781
L7.07812 48.4375
L49.1719 48.4375
z

M49.1719 17.875
L7.07812 17.875
L7.07812 27.6875
L49.1719 27.6875
z
" id="Roboto-Medium-3d"/>
      <path d="
M35.9375 14.3594
Q35.9375 17.0938 33.5938 18.8906
Q31.25 20.7031 24.8594 22.0781
Q15.375 24.0781 10.5156 27.7656
Q5.67188 31.4531 5.67188 37.7969
Q5.67188 44.4375 11.2812 49.125
Q16.8906 53.8125 26.0781 53.8125
Q35.75 53.8125 41.4375 49.0469
Q47.125 44.2812 46.875 37.25
L46.7812 36.9688
L35.4062 36.9688
Q35.4062 40.2344 32.9062 42.5781
Q30.4219 44.9219 26.0781 44.9219
Q21.7812 44.9219 19.5312 42.9844
Q17.2812 41.0625 17.2812 38.2812
Q17.2812 35.5 19.4062 33.8594
Q21.5312 32.2344 28.0312 30.9531
Q37.9844 28.9062 42.7969 25.1719
Q47.6094 21.4375 47.6094 14.9844
Q47.6094 7.85938 41.7188 3.40625
Q35.8438 -1.03125 26.2188 -1.03125
Q15.9219 -1.03125 9.95312 4.23438
Q4 9.51562 4.29688 16.3594
L4.39062 16.6562
L15.4375 16.6562
Q15.625 12.0625 18.75 9.95312
Q21.875 7.85938 26.375 7.85938
Q30.9531 7.85938 33.4375 9.60938
Q35.9375 11.375 35.9375 14.3594" id="Roboto-Medium-73"/>
      <path d="
M38.0312 0
Q37.4062 2 36.9844 3.90625
Q36.5781 5.8125 36.4219 7.71875
Q33.9844 4 30 1.48438
Q26.0312 -1.03125 21.0938 -1.03125
Q12.8438 -1.03125 8.42188 3.21875
Q4 7.46875 4 14.8906
Q4 22.5625 10.0469 26.8281
Q16.1094 31.1094 27.0938 31.1094
L36.3281 31.1094
L36.3281 35.75
Q36.3281 39.8906 33.8906 42.2344
Q31.4531 44.5781 26.9062 44.5781
Q22.8594 44.5781 20.4531 42.625
Q18.0625 40.6719 18.0625 37.5938
L6.64062 37.5938
L6.59375 37.8906
Q6.25 44.1406 12.1719 48.9688
Q18.1094 53.8125 27.6406 53.8125
Q36.8594 53.8125 42.5156 49.125
Q48.1875 44.4375 48.1875 35.6406
L48.1875 12.1562
Q48.1875 8.89062 48.625 5.875
Q49.0781 2.875 50.0469 0
z

M23.4844 8.5
Q27.9844 8.5 31.5625 10.7344
Q35.1562 12.9844 36.3281 15.875
L36.3281 23.6875
L26.9062 23.6875
Q21.7344 23.6875 18.7969 21.125
Q15.875 18.5625 15.875 15.0938
Q15.875 12.0625 17.8438 10.2812
Q19.8281 8.5 23.4844 8.5" id="Roboto-Medium-61"/>
      <path d="
M28.9062 -1.03125
Q17.6719 -1.03125 11 6.3125
Q4.34375 13.6719 4.34375 25.2031
L4.34375 27.1562
Q4.34375 38.6719 10.9531 46.2656
Q17.5781 53.8594 27.5469 53.8125
Q38.2344 53.8125 43.9219 47.3438
Q49.6094 40.875 49.6094 29.9844
L49.6094 23
L16.6562 23
L16.5469 22.75
Q16.8438 16.4531 20.2344 12.4531
Q23.6406 8.45312 29.6406 8.45312
Q34.4219 8.45312 37.8438 9.625
Q41.2656 10.7969 44.4375 12.9844
L48.25 5.21875
Q45.2656 2.59375 40.3281 0.78125
Q35.4062 -1.03125 28.9062 -1.03125
M27.5469 44.2812
Q23.1406 44.2812 20.3125 40.7969
Q17.4844 37.3125 16.7969 31.9375
L16.8906 31.6875
L37.8438 31.6875
L37.8438 32.9062
Q37.8438 37.9375 35.2812 41.1094
Q32.7188 44.2812 27.5469 44.2812" id="Roboto-Medium-65"/>
      <path d="
M10.1094 0
L10.1094 44.0469
L2.04688 44.0469
L2.04688 52.8281
L10.1094 52.8281
L10.1094 58.9844
Q10.1094 67.7188 14.8594 72.4531
Q19.625 77.2031 28.2188 77.2031
Q29.9375 77.2031 31.6875 76.9219
Q33.4531 76.6562 35.6406 76.1719
L34.4219 67
Q33.4531 67.1875 32.25 67.3281
Q31.0625 67.4844 29.6875 67.4844
Q25.8281 67.4844 23.8906 65.2812
Q21.9688 63.0938 21.9688 58.9844
L21.9688 52.8281
L32.7188 52.8281
L32.7188 44.0469
L21.9688 44.0469
L21.9688 0
z
" id="Roboto-Medium-66"/>
      <path d="
M46.2969 16.6094
L18.4531 16.6094
L12.7969 0
L0.78125 0
L26.9062 71.0938
L38.1406 71.0938
L63.9688 0
L51.9062 0
z

M21.875 26.5156
L42.9219 26.5156
L32.625 56.8906
L32.3281 56.8906
z
" id="Roboto-Medium-41"/>
      <path d="
M52.4844 61.5781
Q40.2344 47.1719 35.9375 35.5938
Q31.6406 24.0312 29.6875 7.51562
L28.9531 0
L17.0938 0
L17.8281 7.51562
Q19.7344 23.6406 25.4375 36.75
Q31.1562 49.8594 41.0156 61.5781
L3.375 61.5781
L3.375 71.0938
L52.4844 71.0938
z
" id="Roboto-Medium-37"/>
      <path id="Roboto-Medium-20"/>
      <path d="
M39.1562 7.71875
Q36.6719 3.51562 32.8594 1.23438
Q29.0469 -1.03125 24.0781 -1.03125
Q15.5781 -1.03125 10.7812 4.39062
Q6 9.8125 6 21.2344
L6 52.8281
L17.8281 52.8281
L17.8281 21.1406
Q17.8281 14.2031 20.0625 11.4219
Q22.3125 8.64062 26.8594 8.64062
Q31.1562 8.64062 34.0625 10.1719
Q36.9688 11.7188 38.625 14.6562
L38.625 52.8281
L50.4844 52.8281
L50.4844 0
L40.1406 0
z
" id="Roboto-Medium-75"/>
      <path d="
M32.5625 42.1406
L27.4844 42.3281
Q24.0312 42.3281 21.7031 40.8594
Q19.3906 39.4062 18.1094 36.7188
L18.1094 0
L6.25 0
L6.25 52.8281
L17.0938 52.8281
L17.875 45.1719
Q19.875 49.2188 23.0156 51.5156
Q26.1719 53.8125 30.2812 53.8125
Q31.3438 53.8125 32.2656 53.6406
Q33.2031 53.4688 33.9844 53.2188
z
" id="Roboto-Medium-72"/>
      <path d="
M59.625 23.5781
L59.7188 23.2969
Q59.9062 12.5 52.7031 5.73438
Q45.5156 -1.03125 33.2031 -1.03125
Q20.75 -1.03125 12.9531 7.34375
Q5.17188 15.7188 5.17188 28.7656
L5.17188 42.2812
Q5.17188 55.2812 12.8594 63.7031
Q20.5625 72.125 32.8594 72.125
Q45.4531 72.125 52.7031 65.5
Q59.9688 58.8906 59.7656 47.7031
L59.6719 47.4062
L48.1875 47.4062
Q48.1875 54.5938 44.3125 58.5938
Q40.4375 62.5938 32.8594 62.5938
Q25.5938 62.5938 21.3125 56.8281
Q17.0469 51.0781 17.0469 42.3906
L17.0469 28.7656
Q17.0469 19.9688 21.4062 14.2031
Q25.7812 8.45312 33.2031 8.45312
Q40.5781 8.45312 44.375 12.4062
Q48.1875 16.3594 48.1875 23.5781
z
" id="Roboto-Medium-43"/>
      <path d="
M61.7656 71.0938
L61.7656 23.4375
Q61.7656 11.625 54.0469 5.29688
Q46.3438 -1.03125 33.8906 -1.03125
Q21.6875 -1.03125 14.1094 5.3125
Q6.54688 11.6719 6.54688 23.4375
L6.54688 71.0938
L18.4062 71.0938
L18.4062 23.4375
Q18.4062 15.9688 22.6094 12.2031
Q26.8125 8.45312 33.8906 8.45312
Q41.2188 8.45312 45.5625 12.2031
Q49.9062 15.9688 49.9062 23.4375
L49.9062 71.0938
z
" id="Roboto-Medium-55"/>
      <path d="
M18.8906 0
L7.03125 0
L7.03125 76.1719
L18.8906 76.1719
z
" id="Roboto-Medium-6c"/>
      <path d="
M6.25 28.9062
Q6.25 48.1406 13.8906 61.6406
Q21.5312 75.1406 30.4219 79.2969
L30.7188 79.25
L32.9062 72.7031
Q26.375 67.7188 21.7031 56.7344
Q17.0469 45.75 17.0469 29
L17.0469 28.0312
Q17.0469 11.2812 21.6719 0.296875
Q26.3125 -10.6875 32.9062 -16.0156
L30.7188 -22.2656
L30.4219 -22.2656
Q21.4844 -18.0625 13.8594 -4.57812
Q6.25 8.89062 6.25 28.125
z
" id="Roboto-Medium-28"/>
      <path d="
M27.875 28.125
Q27.875 9.125 20.0938 -4.48438
Q12.3125 -18.1094 3.375 -22.2656
L3.07812 -22.2656
L0.828125 -16.0156
Q7.32812 -11.0312 12.0156 0.09375
Q16.7031 11.2344 16.7031 28.0312
L16.7031 29
Q16.7031 45.6094 11.8906 56.7656
Q7.07812 67.9219 0.828125 73
L3.07812 79.2969
L3.375 79.2969
Q12.25 75.2031 20.0625 61.5312
Q27.875 47.8594 27.875 28.9062
z
" id="Roboto-Medium-29"/>
     </defs>
     <g transform="translate(308.8828125 309.048125)scale(0.1 -0.1)">
      <use xlink:href="#Roboto-Medium-41"/>
      <use x="64.453125" xlink:href="#Roboto-Medium-6c"/>
      <use x="90.380859375" xlink:href="#Roboto-Medium-6c"/>
      <use x="116.30859375" xlink:href="#Roboto-Medium-20"/>
      <use x="141.2109375" xlink:href="#Roboto-Medium-66"/>
      <use x="176.318359375" xlink:href="#Roboto-Medium-65"/>
      <use x="229.248046875" xlink:href="#Roboto-Medium-61"/>
      <use x="283.642578125" xlink:href="#Roboto-Medium-74"/>
      <use x="318.408203125" xlink:href="#Roboto-Medium-75"/>
      <use x="375.048828125" xlink:href="#Roboto-Medium-72"/>
      <use x="409.66796875" xlink:href="#Roboto-Medium-65"/>
      <use x="462.59765625" xlink:href="#Roboto-Medium-73"/>
      <use x="514.599609375" xlink:href="#Roboto-Medium-20"/>
      <use x="539.501953125" xlink:href="#Roboto-Medium-28"/>
      <use x="573.4375" xlink:href="#Roboto-Medium-41"/>
      <use x="637.890625" xlink:href="#Roboto-Medium-55"/>
      <use x="706.0546875" xlink:href="#Roboto-Medium-43"/>
      <use x="769.62890625" xlink:href="#Roboto-Medium-20"/>
      <use x="794.53125" xlink:href="#Roboto-Medium-3d"/>
      <use x="851.46484375" xlink:href="#Roboto-Medium-20"/>
      <use x="876.3671875" xlink:href="#Roboto-Medium-30"/>
      <use x="933.203125" xlink:href="#Roboto-Medium-2e"/>
      <use x="961.1328125" xlink:href="#Roboto-Medium-37"/>
      <use x="1017.96875" xlink:href="#Roboto-Medium-38"/>
      <use x="1074.8046875" xlink:href="#Roboto-Medium-29"/>
     </g>
    </g>
    <g id="line2d_45">
     <path d="
M283.883 320.704
L297.883 320.704" style="fill:none;stroke:#a60628;stroke-width:2.0;"/>
    </g>
    <g id="line2d_46"/>
    <g id="text_16">
     <!-- ConSurf features (AUC = 0.72) -->
     <defs>
      <path d="
M46.2969 18.2656
Q46.2969 22.7031 43 25.5312
Q39.7031 28.375 31.3438 30.6094
Q19.4375 33.7344 13.0156 38.8906
Q6.59375 44.0469 6.59375 52.3906
Q6.59375 60.9844 13.6875 66.5469
Q20.7969 72.125 32.0312 72.125
Q43.75 72.125 50.8438 65.8125
Q57.9531 59.5156 57.7188 50.6875
L57.625 50.3906
L46.2344 50.3906
Q46.2344 55.8594 42.5156 59.25
Q38.8125 62.6406 31.9375 62.6406
Q25.4375 62.6406 21.9375 59.8125
Q18.4531 56.9844 18.4531 52.4844
Q18.4531 48.4375 22.2344 45.75
Q26.0312 43.0625 34.7656 40.6719
Q46.2344 37.5938 52.1875 32.1719
Q58.1562 26.7656 58.1562 18.3594
Q58.1562 9.46875 51.0469 4.21875
Q43.9531 -1.03125 32.375 -1.03125
Q21.2344 -1.03125 12.8281 4.85938
Q4.4375 10.75 4.6875 21
L4.78125 21.2969
L16.2188 21.2969
Q16.2188 14.7969 20.7031 11.5938
Q25.2031 8.40625 32.375 8.40625
Q38.9688 8.40625 42.625 11.0625
Q46.2969 13.7188 46.2969 18.2656" id="Roboto-Medium-53"/>
      <path d="
M17 52.8281
L17.6719 45.2188
Q20.2656 49.2656 24.1875 51.5312
Q28.125 53.8125 33.0625 53.8125
Q41.3125 53.8125 45.9219 48.7969
Q50.5312 43.7969 50.5312 33.2031
L50.5312 0
L38.6719 0
L38.6719 33.1094
Q38.6719 39.0625 36.2031 41.5781
Q33.7344 44.0938 28.7188 44.0938
Q25.25 44.0938 22.5156 42.5469
Q19.7812 41.0156 18.0156 38.3281
L18.0156 0
L6.15625 0
L6.15625 52.8281
z
" id="Roboto-Medium-6e"/>
      <path d="
M4.04688 26.9062
Q4.04688 38.6719 10.5 46.2344
Q17.0469 53.8125 28.2188 53.8125
Q39.5938 53.8125 46.0469 46.2344
Q52.5469 38.7188 52.5469 26.9062
L52.5469 25.875
Q52.5469 13.9688 46.0469 6.45312
Q39.5938 -1.03125 28.3281 -1.03125
Q17 -1.03125 10.5 6.5
Q4.04688 14.0156 4.04688 25.875
z

M15.9219 25.875
Q15.9219 18.1719 18.9531 13.2812
Q21.9219 8.45312 28.3281 8.45312
Q34.5156 8.45312 37.5938 13.2812
Q40.7188 18.1719 40.7188 25.875
L40.7188 26.9062
Q40.7188 34.4688 37.5938 39.3594
Q34.5156 44.2812 28.2188 44.2812
Q22.0156 44.2812 18.9531 39.3594
Q15.9219 34.4219 15.9219 26.9062
z
" id="Roboto-Medium-6f"/>
     </defs>
     <g transform="translate(308.8828125 324.204375)scale(0.1 -0.1)">
      <use xlink:href="#Roboto-Medium-43"/>
      <use x="63.57421875" xlink:href="#Roboto-Medium-6f"/>
      <use x="120.21484375" xlink:href="#Roboto-Medium-6e"/>
      <use x="176.85546875" xlink:href="#Roboto-Medium-53"/>
      <use x="239.74609375" xlink:href="#Roboto-Medium-75"/>
      <use x="296.38671875" xlink:href="#Roboto-Medium-72"/>
      <use x="331.005859375" xlink:href="#Roboto-Medium-66"/>
      <use x="366.11328125" xlink:href="#Roboto-Medium-20"/>
      <use x="391.015625" xlink:href="#Roboto-Medium-66"/>
      <use x="426.123046875" xlink:href="#Roboto-Medium-65"/>
      <use x="479.052734375" xlink:href="#Roboto-Medium-61"/>
      <use x="533.447265625" xlink:href="#Roboto-Medium-74"/>
      <use x="568.212890625" xlink:href="#Roboto-Medium-75"/>
      <use x="624.853515625" xlink:href="#Roboto-Medium-72"/>
      <use x="659.47265625" xlink:href="#Roboto-Medium-65"/>
      <use x="712.40234375" xlink:href="#Roboto-Medium-73"/>
      <use x="764.404296875" xlink:href="#Roboto-Medium-20"/>
      <use x="789.306640625" xlink:href="#Roboto-Medium-28"/>
      <use x="823.2421875" xlink:href="#Roboto-Medium-41"/>
      <use x="887.6953125" xlink:href="#Roboto-Medium-55"/>
      <use x="955.859375" xlink:href="#Roboto-Medium-43"/>
      <use x="1019.43359375" xlink:href="#Roboto-Medium-20"/>
      <use x="1044.3359375" xlink:href="#Roboto-Medium-3d"/>
      <use x="1101.26953125" xlink:href="#Roboto-Medium-20"/>
      <use x="1126.171875" xlink:href="#Roboto-Medium-30"/>
      <use x="1183.0078125" xlink:href="#Roboto-Medium-2e"/>
      <use x="1210.9375" xlink:href="#Roboto-Medium-37"/>
      <use x="1267.7734375" xlink:href="#Roboto-Medium-32"/>
      <use x="1324.609375" xlink:href="#Roboto-Medium-29"/>
     </g>
    </g>
    <g id="line2d_47">
     <path d="
M283.883 335.861
L297.883 335.861" style="fill:none;stroke:#467821;stroke-width:2.0;"/>
    </g>
    <g id="line2d_48"/>
    <g id="text_17">
     <!-- FPocket features (AUC = 0.60) -->
     <defs>
      <path d="
M50.7812 30.3281
L19.625 30.3281
L19.625 0
L7.76562 0
L7.76562 71.0938
L55.7656 71.0938
L55.7656 61.5781
L19.625 61.5781
L19.625 39.8438
L50.7812 39.8438
z
" id="Roboto-Medium-46"/>
      <path d="
M19.625 26.9531
L19.625 0
L7.76562 0
L7.76562 71.0938
L35.5469 71.0938
Q47.3125 71.0938 53.9688 65.0156
Q60.6406 58.9375 60.6406 49.0312
Q60.6406 39.0156 53.9688 32.9844
Q47.3125 26.9531 35.5469 26.9531
z

M19.625 36.4688
L35.5469 36.4688
Q42.1406 36.4688 45.4531 39.9844
Q48.7812 43.5 48.7812 48.9219
Q48.7812 54.3438 45.4531 57.9531
Q42.1406 61.5781 35.5469 61.5781
L19.625 61.5781
z
" id="Roboto-Medium-50"/>
      <path d="
M23.4375 23.0938
L18.1094 23.0938
L18.1094 0
L6.29688 0
L6.29688 76.1719
L18.1094 76.1719
L18.1094 32.625
L23.0469 32.625
L36.375 52.8281
L50.3438 52.8281
L32.9062 28.8125
L52.9375 0
L39.1562 0
z
" id="Roboto-Medium-6b"/>
      <path d="
M28.0781 8.45312
Q32.4219 8.45312 35.3906 11.0156
Q38.375 13.5781 38.375 17.4375
L49.125 17.4375
L49.2188 17.1406
Q49.4688 9.71875 43.1875 4.34375
Q36.9219 -1.03125 28.0781 -1.03125
Q16.4062 -1.03125 10.1719 6.48438
Q3.95312 14.0156 3.95312 25.5312
L3.95312 27.25
Q3.95312 38.7188 10.1719 46.2656
Q16.4062 53.8125 28.0781 53.8125
Q37.5938 53.8125 43.5312 48.2656
Q49.4688 42.7188 49.2656 34.1875
L49.1719 33.8906
L38.375 33.8906
Q38.375 38.2344 35.5156 41.25
Q32.6719 44.2812 28.0781 44.2812
Q21.3906 44.2812 18.6094 39.4219
Q15.8281 34.5781 15.8281 27.25
L15.8281 25.5312
Q15.8281 18.0625 18.6094 13.25
Q21.3906 8.45312 28.0781 8.45312" id="Roboto-Medium-63"/>
     </defs>
     <g transform="translate(308.8828125 339.360625)scale(0.1 -0.1)">
      <use xlink:href="#Roboto-Medium-46"/>
      <use x="58.0078125" xlink:href="#Roboto-Medium-50"/>
      <use x="122.607421875" xlink:href="#Roboto-Medium-6f"/>
      <use x="179.248046875" xlink:href="#Roboto-Medium-63"/>
      <use x="231.73828125" xlink:href="#Roboto-Medium-6b"/>
      <use x="284.08203125" xlink:href="#Roboto-Medium-65"/>
      <use x="337.01171875" xlink:href="#Roboto-Medium-74"/>
      <use x="371.77734375" xlink:href="#Roboto-Medium-20"/>
      <use x="396.6796875" xlink:href="#Roboto-Medium-66"/>
      <use x="431.787109375" xlink:href="#Roboto-Medium-65"/>
      <use x="484.716796875" xlink:href="#Roboto-Medium-61"/>
      <use x="539.111328125" xlink:href="#Roboto-Medium-74"/>
      <use x="573.876953125" xlink:href="#Roboto-Medium-75"/>
      <use x="630.517578125" xlink:href="#Roboto-Medium-72"/>
      <use x="665.13671875" xlink:href="#Roboto-Medium-65"/>
      <use x="718.06640625" xlink:href="#Roboto-Medium-73"/>
      <use x="770.068359375" xlink:href="#Roboto-Medium-20"/>
      <use x="794.970703125" xlink:href="#Roboto-Medium-28"/>
      <use x="828.90625" xlink:href="#Roboto-Medium-41"/>
      <use x="893.359375" xlink:href="#Roboto-Medium-55"/>
      <use x="961.5234375" xlink:href="#Roboto-Medium-43"/>
      <use x="1025.09765625" xlink:href="#Roboto-Medium-20"/>
      <use x="1050.0" xlink:href="#Roboto-Medium-3d"/>
      <use x="1106.93359375" xlink:href="#Roboto-Medium-20"/>
      <use x="1131.8359375" xlink:href="#Roboto-Medium-30"/>
      <use x="1188.671875" xlink:href="#Roboto-Medium-2e"/>
      <use x="1216.6015625" xlink:href="#Roboto-Medium-36"/>
      <use x="1273.4375" xlink:href="#Roboto-Medium-30"/>
      <use x="1330.2734375" xlink:href="#Roboto-Medium-29"/>
     </g>
    </g>
    <g id="line2d_49">
     <path d="
M283.883 351.017
L297.883 351.017" style="fill:none;stroke:#7a68a6;stroke-width:2.0;"/>
    </g>
    <g id="line2d_50"/>
    <g id="text_18">
     <!-- FTMap features (AUC = 0.73) -->
     <defs>
      <path d="
M23.1406 71.0938
L43.6094 16.4062
L43.8906 16.4062
L64.4062 71.0938
L79.7812 71.0938
L79.7812 0
L67.9219 0
L67.9219 24.2188
L69.0938 55.0312
L68.7969 55.0781
L47.7031 0
L39.75 0
L18.75 54.9375
L18.4531 54.8906
L19.625 24.2188
L19.625 0
L7.76562 0
L7.76562 71.0938
z
" id="Roboto-Medium-4d"/>
      <path d="
M52.5469 24.6562
Q52.5469 13.1406 47.125 6.04688
Q41.7031 -1.03125 32.0312 -1.03125
Q27.5469 -1.03125 24.0781 0.578125
Q20.6094 2.20312 18.1094 5.32812
L18.1094 -20.3125
L6.25 -20.3125
L6.25 52.8281
L16.2656 52.8281
L17.4375 46.1875
Q19.9688 49.9062 23.5625 51.8594
Q27.1562 53.8125 31.8906 53.8125
Q41.6562 53.8125 47.0938 46.0625
Q52.5469 38.3281 52.5469 25.6875
z

M40.7188 25.6875
Q40.7188 33.7969 37.6719 38.9375
Q34.625 44.0938 28.5625 44.0938
Q24.8594 44.0938 22.2656 42.5
Q19.6719 40.9219 18.1094 38.0938
L18.1094 14.2031
Q19.6719 11.4219 22.2656 9.9375
Q24.8594 8.45312 28.6562 8.45312
Q34.7188 8.45312 37.7188 12.9219
Q40.7188 17.3906 40.7188 24.6562
z
" id="Roboto-Medium-70"/>
      <path d="
M19.0469 40.9219
L27.2969 40.9219
Q33.0625 40.9219 35.5938 43.7656
Q38.1406 46.625 38.1406 51.8594
Q38.1406 56.9844 35.4062 59.7812
Q32.6719 62.5938 27.3438 62.5938
Q22.5156 62.5938 19.4531 59.8281
Q16.4062 57.0781 16.4062 52.5938
L4.98438 52.5938
L4.89062 52.875
Q4.59375 61.0312 10.9531 66.5781
Q17.3281 72.125 27.2031 72.125
Q37.5938 72.125 43.7969 66.8438
Q50 61.5781 50 51.8594
Q50 47.3125 47.2188 43.0625
Q44.4375 38.8125 39.3125 36.4688
Q45.3594 34.3281 48.2188 29.9219
Q51.0781 25.5312 51.0781 19.9219
Q51.0781 10.1562 44.3594 4.5625
Q37.6406 -1.03125 27.2031 -1.03125
Q17.3281 -1.03125 10.6094 4.21875
Q3.90625 9.46875 4.20312 18.75
L4.29688 19.0469
L15.7188 19.0469
Q15.7188 14.3125 18.8906 11.375
Q22.0781 8.45312 27.3438 8.45312
Q32.8594 8.45312 36.0312 11.4219
Q39.2031 14.4062 39.2031 19.875
Q39.2031 25.875 36.2969 28.7344
Q33.4062 31.5938 27.2969 31.5938
L19.0469 31.5938
z
" id="Roboto-Medium-33"/>
      <path d="
M56.3438 61.5781
L34.8594 61.5781
L34.8594 0
L23 0
L23 61.5781
L1.51562 61.5781
L1.51562 71.0938
L56.3438 71.0938
z
" id="Roboto-Medium-54"/>
     </defs>
     <g transform="translate(308.8828125 354.516875)scale(0.1 -0.1)">
      <use xlink:href="#Roboto-Medium-46"/>
      <use x="58.0078125" xlink:href="#Roboto-Medium-54"/>
      <use x="115.869140625" xlink:href="#Roboto-Medium-4d"/>
      <use x="203.466796875" xlink:href="#Roboto-Medium-61"/>
      <use x="257.861328125" xlink:href="#Roboto-Medium-70"/>
      <use x="314.501953125" xlink:href="#Roboto-Medium-20"/>
      <use x="339.404296875" xlink:href="#Roboto-Medium-66"/>
      <use x="374.51171875" xlink:href="#Roboto-Medium-65"/>
      <use x="427.44140625" xlink:href="#Roboto-Medium-61"/>
      <use x="481.8359375" xlink:href="#Roboto-Medium-74"/>
      <use x="516.6015625" xlink:href="#Roboto-Medium-75"/>
      <use x="573.2421875" xlink:href="#Roboto-Medium-72"/>
      <use x="607.861328125" xlink:href="#Roboto-Medium-65"/>
      <use x="660.791015625" xlink:href="#Roboto-Medium-73"/>
      <use x="712.79296875" xlink:href="#Roboto-Medium-20"/>
      <use x="737.6953125" xlink:href="#Roboto-Medium-28"/>
      <use x="771.630859375" xlink:href="#Roboto-Medium-41"/>
      <use x="836.083984375" xlink:href="#Roboto-Medium-55"/>
      <use x="904.248046875" xlink:href="#Roboto-Medium-43"/>
      <use x="967.822265625" xlink:href="#Roboto-Medium-20"/>
      <use x="992.724609375" xlink:href="#Roboto-Medium-3d"/>
      <use x="1049.65820312" xlink:href="#Roboto-Medium-20"/>
      <use x="1074.56054688" xlink:href="#Roboto-Medium-30"/>
      <use x="1131.39648438" xlink:href="#Roboto-Medium-2e"/>
      <use x="1159.32617188" xlink:href="#Roboto-Medium-37"/>
      <use x="1216.16210938" xlink:href="#Roboto-Medium-33"/>
      <use x="1272.99804688" xlink:href="#Roboto-Medium-29"/>
     </g>
    </g>
    <g id="line2d_51">
     <path d="
M283.883 366.173
L297.883 366.173" style="fill:none;stroke:#cf4457;stroke-width:2.0;"/>
    </g>
    <g id="line2d_52"/>
    <g id="text_19">
     <!-- Physicochemical features (AUC = 0.54) -->
     <defs>
      <path d="
M17.9688 46
Q20.6094 49.7031 24.3906 51.75
Q28.1719 53.8125 32.7656 53.8125
Q41.1562 53.8125 45.875 48.5156
Q50.5938 43.2188 50.5938 32.1719
L50.5938 0
L38.7188 0
L38.7188 32.2812
Q38.7188 38.5312 36.2188 41.3125
Q33.7344 44.0938 28.7656 44.0938
Q25.2969 44.0938 22.5312 42.6562
Q19.7812 41.2188 17.9688 38.6719
L17.9688 0
L6.10938 0
L6.10938 76.1719
L17.9688 76.1719
z
" id="Roboto-Medium-68"/>
      <path d="
M18.8906 0
L7.03125 0
L7.03125 52.8281
L18.8906 52.8281
z

M18.8906 65.7656
L7.03125 65.7656
L7.03125 76.1719
L18.8906 76.1719
z
" id="Roboto-Medium-69"/>
      <path d="
M23.7812 21.1875
L24.9531 15.9219
L25.25 15.9219
L36.8125 52.8281
L49.8125 52.8281
L27.9375 -8.01562
Q25.8281 -13.5312 22.0156 -17.4375
Q18.2188 -21.3438 11.2344 -21.3438
Q9.76562 -21.3438 8.07812 -21.0469
Q6.39062 -20.75 4.82812 -20.3594
L6.15625 -11.1875
Q6.78125 -11.2344 7.95312 -11.3281
Q9.125 -11.4219 9.71875 -11.4219
Q12.9375 -11.4219 14.8594 -9.21875
Q16.7969 -7.03125 18.0156 -4.15625
L19.9688 0.640625
L0.78125 52.8281
L13.7188 52.8281
z
" id="Roboto-Medium-79"/>
      <path d="
M17.0938 52.8281
L17.7188 45.9531
Q20.3125 49.7031 24.2188 51.75
Q28.125 53.8125 33.25 53.8125
Q38.4219 53.8125 42.125 51.4688
Q45.8438 49.125 47.7031 44.4375
Q50.1406 48.8281 54.1406 51.3125
Q58.1562 53.8125 63.5312 53.8125
Q71.4844 53.8125 76.0938 48.3594
Q80.7188 42.9219 80.7188 31.8438
L80.7188 0
L68.8438 0
L68.8438 31.8906
Q68.8438 38.625 66.5156 41.3594
Q64.2031 44.0938 59.5781 44.0938
Q55.7656 44.0938 53.125 42.0312
Q50.4844 39.9844 49.3125 36.5312
Q49.3125 35.7969 49.3594 35.25
Q49.4219 34.7188 49.4219 34.2344
L49.4219 0
L37.5469 0
L37.5469 31.8906
Q37.5469 38.375 35.1719 41.2344
Q32.8125 44.0938 28.2188 44.0938
Q24.6094 44.0938 22.0938 42.7031
Q19.5781 41.3125 18.1094 38.7656
L18.1094 0
L6.25 0
L6.25 52.8281
z
" id="Roboto-Medium-6d"/>
      <path d="
M7.625 31.7812
L11.7188 71.0938
L49.2656 71.0938
L49.2656 60.8438
L21.5781 60.8438
L19.4375 43.0156
Q21.5312 44.5781 24.2812 45.5781
Q27.0469 46.5781 30.5156 46.6875
Q40.5312 46.7812 46.1875 40.3281
Q51.8594 33.8906 51.8594 22.7031
Q51.8594 12.25 45.8906 5.60938
Q39.9375 -1.03125 28.6562 -1.03125
Q19.2812 -1.03125 12.8125 4.125
Q6.34375 9.28125 6.59375 18.75
L6.6875 19
L17.7812 19.3906
Q17.7812 14.2031 20.7969 11.3281
Q23.8281 8.45312 28.6562 8.45312
Q34.1875 8.45312 37.0781 12.3281
Q39.9844 16.2188 39.9844 22.6094
Q39.9844 29.0469 37 33.0781
Q34.0312 37.1094 28.5156 37.1094
Q23.6406 37.1094 21.2656 35.5156
Q18.8906 33.9375 17.8281 30.9531
z
" id="Roboto-Medium-35"/>
     </defs>
     <g transform="translate(308.8828125 369.673125)scale(0.1 -0.1)">
      <use xlink:href="#Roboto-Medium-50"/>
      <use x="64.599609375" xlink:href="#Roboto-Medium-68"/>
      <use x="121.240234375" xlink:href="#Roboto-Medium-79"/>
      <use x="171.923828125" xlink:href="#Roboto-Medium-73"/>
      <use x="223.92578125" xlink:href="#Roboto-Medium-69"/>
      <use x="249.853515625" xlink:href="#Roboto-Medium-63"/>
      <use x="302.34375" xlink:href="#Roboto-Medium-6f"/>
      <use x="358.984375" xlink:href="#Roboto-Medium-63"/>
      <use x="411.474609375" xlink:href="#Roboto-Medium-68"/>
      <use x="468.115234375" xlink:href="#Roboto-Medium-65"/>
      <use x="521.044921875" xlink:href="#Roboto-Medium-6d"/>
      <use x="608.0078125" xlink:href="#Roboto-Medium-69"/>
      <use x="633.935546875" xlink:href="#Roboto-Medium-63"/>
      <use x="686.42578125" xlink:href="#Roboto-Medium-61"/>
      <use x="740.8203125" xlink:href="#Roboto-Medium-6c"/>
      <use x="766.748046875" xlink:href="#Roboto-Medium-20"/>
      <use x="791.650390625" xlink:href="#Roboto-Medium-66"/>
      <use x="826.7578125" xlink:href="#Roboto-Medium-65"/>
      <use x="879.6875" xlink:href="#Roboto-Medium-61"/>
      <use x="934.08203125" xlink:href="#Roboto-Medium-74"/>
      <use x="968.84765625" xlink:href="#Roboto-Medium-75"/>
      <use x="1025.48828125" xlink:href="#Roboto-Medium-72"/>
      <use x="1060.10742188" xlink:href="#Roboto-Medium-65"/>
      <use x="1113.03710938" xlink:href="#Roboto-Medium-73"/>
      <use x="1165.0390625" xlink:href="#Roboto-Medium-20"/>
      <use x="1189.94140625" xlink:href="#Roboto-Medium-28"/>
      <use x="1223.87695312" xlink:href="#Roboto-Medium-41"/>
      <use x="1288.33007812" xlink:href="#Roboto-Medium-55"/>
      <use x="1356.49414062" xlink:href="#Roboto-Medium-43"/>
      <use x="1420.06835938" xlink:href="#Roboto-Medium-20"/>
      <use x="1444.97070312" xlink:href="#Roboto-Medium-3d"/>
      <use x="1501.90429688" xlink:href="#Roboto-Medium-20"/>
      <use x="1526.80664062" xlink:href="#Roboto-Medium-30"/>
      <use x="1583.64257812" xlink:href="#Roboto-Medium-2e"/>
      <use x="1611.57226562" xlink:href="#Roboto-Medium-35"/>
      <use x="1668.40820312" xlink:href="#Roboto-Medium-34"/>
      <use x="1725.24414062" xlink:href="#Roboto-Medium-29"/>
     </g>
    </g>
    <g id="line2d_53">
     <path d="
M283.883 381.017
L297.883 381.017" style="fill:none;stroke:#999999;stroke-dasharray:6.000000,6.000000;stroke-dashoffset:0.0;stroke-linecap:butt;stroke-width:2.0;"/>
    </g>
    <g id="line2d_54"/>
    <g id="text_20">
     <!-- Random -->
     <defs>
      <path d="
M19.625 29.5
L19.625 0
L7.76562 0
L7.76562 71.0938
L34.0312 71.0938
Q45.9531 71.0938 52.4375 65.7188
Q58.9375 60.3594 58.9375 50.3906
Q58.9375 44.875 56.0781 40.8906
Q53.2188 36.9219 47.75 34.5156
Q53.7656 32.625 56.3906 28.2969
Q59.0312 23.9688 59.0312 17.6719
L59.0312 11.7656
Q59.0312 8.64062 59.8125 5.65625
Q60.5938 2.6875 62.4531 1.125
L62.4531 0
L50.25 0
Q48.2969 1.60938 47.7344 5.07812
Q47.1719 8.54688 47.1719 11.8594
L47.1719 17.5781
Q47.1719 23.0469 44.0469 26.2656
Q40.9219 29.5 35.4531 29.5
z

M19.625 39.0156
L33.4062 39.0156
Q40.5312 39.0156 43.7969 41.75
Q47.0781 44.4844 47.0781 50.0938
Q47.0781 55.4688 43.8438 58.5156
Q40.625 61.5781 34.0312 61.5781
L19.625 61.5781
z
" id="Roboto-Medium-52"/>
      <path d="
M4.04688 25.6875
Q4.04688 38.3281 9.46875 46.0625
Q14.8906 53.8125 24.7031 53.8125
Q29 53.8125 32.3906 52.0781
Q35.7969 50.3438 38.2812 47.125
L38.2812 76.1719
L50.1406 76.1719
L50.1406 0
L40.1875 0
L39.0156 6.54688
Q36.4688 2.82812 32.9062 0.890625
Q29.3438 -1.03125 24.6094 -1.03125
Q14.8906 -1.03125 9.46875 6.04688
Q4.04688 13.1406 4.04688 24.6562
z

M15.9219 24.6562
Q15.9219 17.3281 18.7188 12.9844
Q21.5312 8.64062 27.6406 8.64062
Q31.3906 8.64062 34 10.25
Q36.625 11.8594 38.2812 14.8438
L38.2812 37.8906
Q36.625 40.8281 33.9844 42.4531
Q31.3438 44.0938 27.7344 44.0938
Q21.6875 44.0938 18.7969 38.9844
Q15.9219 33.8906 15.9219 25.6875
z
" id="Roboto-Medium-64"/>
     </defs>
     <g transform="translate(308.8828125 384.516875)scale(0.1 -0.1)">
      <use xlink:href="#Roboto-Medium-52"/>
      <use x="66.2109375" xlink:href="#Roboto-Medium-61"/>
      <use x="120.60546875" xlink:href="#Roboto-Medium-6e"/>
      <use x="177.24609375" xlink:href="#Roboto-Medium-64"/>
      <use x="233.88671875" xlink:href="#Roboto-Medium-6f"/>
      <use x="290.52734375" xlink:href="#Roboto-Medium-6d"/>
     </g>
    </g>
   </g>
  </g>
 </g>
 <defs>
  <clipPath id="p4ab6bb4454">
   <rect height="382.82" width="448.7309375" x="44.4690625" y="10.8"/>
  </clipPath>
 </defs>
</svg>
