<?xml version="1.0" encoding="utf-8" standalone="no"?>
<!DOCTYPE svg PUBLIC "-//W3C//DTD SVG 1.1//EN"
  "http://www.w3.org/Graphics/SVG/1.1/DTD/svg11.dtd">
<!-- Created with matplotlib (http://matplotlib.org/) -->
<svg height="432pt" version="1.1" viewBox="0 0 504 432" width="504pt" xmlns="http://www.w3.org/2000/svg" xmlns:xlink="http://www.w3.org/1999/xlink">
 <defs>
  <style type="text/css">
*{stroke-linecap:square;stroke-linejoin:round;}
  </style>
 </defs>
 <g id="figure_1">
  <g id="patch_1">
   <path d="
M0 432
L504 432
L504 0
L0 0
z
" style="fill:#ffffff;"/>
  </g>
  <g id="axes_1">
   <g id="patch_2">
    <path d="
M44.4691 393.62
L493.2 393.62
L493.2 10.8
L44.4691 10.8
z
" style="fill:#eeeeee;"/>
   </g>
   <g id="matplotlib.axis_1">
    <g id="xtick_1">
     <g id="line2d_1">
      <path clip-path="url(#p4ab6bb4454)" d="
M64.8659 393.62
L64.8659 10.8" style="fill:none;stroke:#000000;stroke-dasharray:1.000000,3.000000;stroke-dashoffset:0.0;stroke-linecap:butt;stroke-width:0.5;"/>
     </g>
     <g id="line2d_2">
      <defs>
       <path d="
M0 0
L0 0" id="m080760d0c3" style="stroke:#555555;stroke-linecap:butt;stroke-width:0.5;"/>
      </defs>
      <g>
       <use style="fill:#555555;stroke:#555555;stroke-linecap:butt;stroke-width:0.5;" x="64.8659232955" xlink:href="#m080760d0c3" y="393.62"/>
      </g>
     </g>
     <g id="line2d_3">
      <g>
       <use style="fill:#555555;stroke:#555555;stroke-linecap:butt;stroke-width:0.5;" x="64.8659232955" xlink:href="#m080760d0c3" y="10.8"/>
      </g>
     </g>
     <g id="text_1">
      <!-- 0.0 -->
      <defs>
       <path d="
M19.2812 0
L7.46875 0
L7.46875 11.375
L19.2812 11.375
z
" id="Roboto-Medium-2e"/>
       <path d="
M51.7031 27.3906
Q51.7031 13.5312 45.4531 6.25
Q39.2031 -1.03125 28.4688 -1.03125
Q17.6719 -1.03125 11.375 6.25
Q5.07812 13.5312 5.07812 27.3906
L5.07812 43.6562
Q5.07812 57.4688 11.3281 64.7969
Q17.5781 72.125 28.375 72.125
Q39.1094 72.125 45.4062 64.7969
Q51.7031 57.4688 51.7031 43.6562
z

M39.8438 45.4531
Q39.8438 54.2031 36.9062 58.3906
Q33.9844 62.5938 28.375 62.5938
Q22.75 62.5938 19.8438 58.3906
Q16.9375 54.2031 16.9375 45.4531
L16.9375 25.6875
Q16.9375 16.8906 19.8906 12.6719
Q22.8594 8.45312 28.4688 8.45312
Q34.0781 8.45312 36.9531 12.6406
Q39.8438 16.8438 39.8438 25.6875
z
" id="Roboto-Medium-30"/>
      </defs>
      <g style="fill:#555555;" transform="translate(58.2956107955 406.8325)scale(0.1 -0.1)">
       <use xlink:href="#Roboto-Medium-30"/>
       <use x="56.8359375" xlink:href="#Roboto-Medium-2e"/>
       <use x="84.765625" xlink:href="#Roboto-Medium-30"/>
      </g>
     </g>
    </g>
    <g id="xtick_2">
     <g id="line2d_4">
      <path clip-path="url(#p4ab6bb4454)" d="
M146.453 393.62
L146.453 10.8" style="fill:none;stroke:#000000;stroke-dasharray:1.000000,3.000000;stroke-dashoffset:0.0;stroke-linecap:butt;stroke-width:0.5;"/>
     </g>
     <g id="line2d_5">
      <g>
       <use style="fill:#555555;stroke:#555555;stroke-linecap:butt;stroke-width:0.5;" x="146.453366477" xlink:href="#m080760d0c3" y="393.62"/>
      </g>
     </g>
     <g id="line2d_6">
      <g>
       <use style="fill:#555555;stroke:#555555;stroke-linecap:butt;stroke-width:0.5;" x="146.453366477" xlink:href="#m080760d0c3" y="10.8"/>
      </g>
     </g>
     <g id="text_2">
      <!-- 0.2 -->
      <defs>
       <path d="
M52.5469 0
L5.32812 0
L5.32812 8.15625
L28.4688 33.4062
Q34.125 39.5938 36.2656 43.5781
Q38.4219 47.5625 38.4219 51.375
Q38.4219 56.1562 35.6406 59.375
Q32.8594 62.5938 28.125 62.5938
Q21.875 62.5938 18.8438 59.0781
Q15.8281 55.5625 15.8281 49.4219
L4.34375 49.4219
L4.25 49.7031
Q4 59.1875 10.4375 65.6562
Q16.8906 72.125 28.125 72.125
Q38.375 72.125 44.3281 66.4531
Q50.2969 60.7969 50.2969 51.6562
Q50.2969 45.5625 46.8438 39.9844
Q43.4062 34.4219 36.1875 26.4688
L20.3594 9.76562
L20.5156 9.46875
L52.5469 9.46875
z
" id="Roboto-Medium-32"/>
      </defs>
      <g style="fill:#555555;" transform="translate(139.840866477 406.8325)scale(0.1 -0.1)">
       <use xlink:href="#Roboto-Medium-30"/>
       <use x="56.8359375" xlink:href="#Roboto-Medium-2e"/>
       <use x="84.765625" xlink:href="#Roboto-Medium-32"/>
      </g>
     </g>
    </g>
    <g id="xtick_3">
     <g id="line2d_7">
      <path clip-path="url(#p4ab6bb4454)" d="
M228.041 393.62
L228.041 10.8" style="fill:none;stroke:#000000;stroke-dasharray:1.000000,3.000000;stroke-dashoffset:0.0;stroke-linecap:butt;stroke-width:0.5;"/>
     </g>
     <g id="line2d_8">
      <g>
       <use style="fill:#555555;stroke:#555555;stroke-linecap:butt;stroke-width:0.5;" x="228.040809659" xlink:href="#m080760d0c3" y="393.62"/>
      </g>
     </g>
     <g id="line2d_9">
      <g>
       <use style="fill:#555555;stroke:#555555;stroke-linecap:butt;stroke-width:0.5;" x="228.040809659" xlink:href="#m080760d0c3" y="10.8"/>
      </g>
     </g>
     <g id="text_3">
      <!-- 0.4 -->
      <defs>
       <path d="
M45.3594 25.3438
L54.3438 25.3438
L54.3438 15.7656
L45.3594 15.7656
L45.3594 0
L33.5469 0
L33.5469 15.7656
L3.03125 15.7656
L2.73438 23.0469
L33.1562 71.0938
L45.3594 71.0938
z

M14.4531 25.3438
L33.5469 25.3438
L33.5469 54.2031
L33.25 54.2969
L32.2812 52.2031
z
" id="Roboto-Medium-34"/>
      </defs>
      <g style="fill:#555555;" transform="translate(221.338465909 406.8325)scale(0.1 -0.1)">
       <use xlink:href="#Roboto-Medium-30"/>
       <use x="56.8359375" xlink:href="#Roboto-Medium-2e"/>
       <use x="84.765625" xlink:href="#Roboto-Medium-34"/>
      </g>
     </g>
    </g>
    <g id="xtick_4">
     <g id="line2d_10">
      <path clip-path="url(#p4ab6bb4454)" d="
M309.628 393.62
L309.628 10.8" style="fill:none;stroke:#000000;stroke-dasharray:1.000000,3.000000;stroke-dashoffset:0.0;stroke-linecap:butt;stroke-width:0.5;"/>
     </g>
     <g id="line2d_11">
      <g>
       <use style="fill:#555555;stroke:#555555;stroke-linecap:butt;stroke-width:0.5;" x="309.628252841" xlink:href="#m080760d0c3" y="393.62"/>
      </g>
     </g>
     <g id="line2d_12">
      <g>
       <use style="fill:#555555;stroke:#555555;stroke-linecap:butt;stroke-width:0.5;" x="309.628252841" xlink:href="#m080760d0c3" y="10.8"/>
      </g>
     </g>
     <g id="text_4">
      <!-- 0.6 -->
      <defs>
       <path d="
M33.2031 72.125
Q37.0156 72.125 40.5312 71.3125
Q44.0469 70.5156 46.8281 69.1875
L44.5781 60.0156
Q41.8438 61.1875 39.25 61.8438
Q36.6719 62.5 33.25 62.5
Q26.125 62.5 21.7969 57
Q17.4844 51.5156 17.4844 42.1875
L17.4844 41.8438
Q20.4062 44.5312 24.2812 46
Q28.1719 47.4688 32.8125 47.4688
Q42.3281 47.4688 47.875 40.7969
Q53.4219 34.125 53.4219 23.8281
Q53.4219 12.9375 47.0625 5.95312
Q40.7188 -1.03125 30.4219 -1.03125
Q19.5781 -1.03125 12.625 6.57812
Q5.67188 14.2031 5.67188 27.875
L5.67188 41.4531
Q5.67188 55.3281 13.5 63.7188
Q21.3438 72.125 33.2031 72.125
M29.8906 38.2344
Q25.3906 38.2344 22.2656 36.6406
Q19.1406 35.0625 17.4844 32.3281
L17.4844 27.25
Q17.4844 18.2188 21.1094 13.3281
Q24.75 8.45312 30.4219 8.45312
Q35.5938 8.45312 38.5625 12.8906
Q41.5469 17.3281 41.5469 23.8281
Q41.5469 30.2188 38.4219 34.2188
Q35.2969 38.2344 29.8906 38.2344" id="Roboto-Medium-36"/>
      </defs>
      <g style="fill:#555555;" transform="translate(302.972002841 406.8325)scale(0.1 -0.1)">
       <use xlink:href="#Roboto-Medium-30"/>
       <use x="56.8359375" xlink:href="#Roboto-Medium-2e"/>
       <use x="84.765625" xlink:href="#Roboto-Medium-36"/>
      </g>
     </g>
    </g>
    <g id="xtick_5">
     <g id="line2d_13">
      <path clip-path="url(#p4ab6bb4454)" d="
M391.216 393.62
L391.216 10.8" style="fill:none;stroke:#000000;stroke-dasharray:1.000000,3.000000;stroke-dashoffset:0.0;stroke-linecap:butt;stroke-width:0.5;"/>
     </g>
     <g id="line2d_14">
      <g>
       <use style="fill:#555555;stroke:#555555;stroke-linecap:butt;stroke-width:0.5;" x="391.215696023" xlink:href="#m080760d0c3" y="393.62"/>
      </g>
     </g>
     <g id="line2d_15">
      <g>
       <use style="fill:#555555;stroke:#555555;stroke-linecap:butt;stroke-width:0.5;" x="391.215696023" xlink:href="#m080760d0c3" y="10.8"/>
      </g>
     </g>
     <g id="text_5">
      <!-- 0.8 -->
      <defs>
       <path d="
M50.25 52.3438
Q50.25 46.9688 47.3125 42.8125
Q44.3906 38.6719 39.3594 36.4688
Q45.1719 34.2344 48.6094 29.7344
Q52.0469 25.25 52.0469 19.3906
Q52.0469 9.46875 45.5 4.21875
Q38.9688 -1.03125 28.4688 -1.03125
Q17.8281 -1.03125 11.2812 4.21875
Q4.73438 9.46875 4.73438 19.3906
Q4.73438 25.25 8.125 29.7344
Q11.5312 34.2344 17.4375 36.5312
Q12.3594 38.6719 9.46875 42.7969
Q6.59375 46.9219 6.59375 52.3438
Q6.59375 61.8125 12.5781 66.9688
Q18.5625 72.125 28.375 72.125
Q38.0938 72.125 44.1719 66.9688
Q50.25 61.8125 50.25 52.3438
M40.2344 19.9688
Q40.2344 25.2031 36.8906 28.4688
Q33.5469 31.7344 28.375 31.7344
Q23.0938 31.7344 19.8438 28.4844
Q16.6094 25.25 16.6094 19.9688
Q16.6094 14.5938 19.8281 11.5156
Q23.0469 8.45312 28.4688 8.45312
Q33.6875 8.45312 36.9531 11.5469
Q40.2344 14.6562 40.2344 19.9688
M38.375 51.9062
Q38.375 56.5938 35.5938 59.5938
Q32.8125 62.5938 28.375 62.5938
Q23.7812 62.5938 21.1094 59.6875
Q18.4531 56.7812 18.4531 51.9062
Q18.4531 47.0781 21.1562 44.1719
Q23.875 41.2656 28.4688 41.2656
Q32.9531 41.2656 35.6562 44.1719
Q38.375 47.0781 38.375 51.9062" id="Roboto-Medium-38"/>
      </defs>
      <g style="fill:#555555;" transform="translate(384.628196023 406.8325)scale(0.1 -0.1)">
       <use xlink:href="#Roboto-Medium-30"/>
       <use x="56.8359375" xlink:href="#Roboto-Medium-2e"/>
       <use x="84.765625" xlink:href="#Roboto-Medium-38"/>
      </g>
     </g>
    </g>
    <g id="xtick_6">
     <g id="line2d_16">
      <path clip-path="url(#p4ab6bb4454)" d="
M472.803 393.62
L472.803 10.8" style="fill:none;stroke:#000000;stroke-dasharray:1.000000,3.000000;stroke-dashoffset:0.0;stroke-linecap:butt;stroke-width:0.5;"/>
     </g>
     <g id="line2d_17">
      <g>
       <use style="fill:#555555;stroke:#555555;stroke-linecap:butt;stroke-width:0.5;" x="472.803139205" xlink:href="#m080760d0c3" y="393.62"/>
      </g>
     </g>
     <g id="line2d_18">
      <g>
       <use style="fill:#555555;stroke:#555555;stroke-linecap:butt;stroke-width:0.5;" x="472.803139205" xlink:href="#m080760d0c3" y="10.8"/>
      </g>
     </g>
     <g id="text_6">
      <!-- 1.0 -->
      <defs>
       <path d="
M35.0625 0
L23.1875 0
L23.1875 59.8125
L8.73438 59.8125
L8.73438 68.5625
L35.0625 71.0938
z
" id="Roboto-Medium-31"/>
      </defs>
      <g style="fill:#555555;" transform="translate(466.415639205 406.8325)scale(0.1 -0.1)">
       <use xlink:href="#Roboto-Medium-31"/>
       <use x="56.8359375" xlink:href="#Roboto-Medium-2e"/>
       <use x="84.765625" xlink:href="#Roboto-Medium-30"/>
      </g>
     </g>
    </g>
    <g id="text_7">
     <!-- False Positive Rate -->
     <defs>
      <path d="
M40.7656 12.9375
Q40.7656 17.1406 37.1719 20.5781
Q33.5938 24.0312 24.6562 25.9844
Q15.2344 27.9844 11 31.125
Q6.78125 34.2812 6.78125 40.4844
Q6.78125 46.1406 11.5625 49.9688
Q16.3594 53.8125 24.4688 53.8125
Q33.2031 53.8125 38.2344 49.7031
Q43.2656 45.6094 43.0156 39.0156
L42.9219 38.7188
L40.6719 38.7188
Q40.6719 43.8906 36.2969 47.5312
Q31.9375 51.1719 24.4688 51.1719
Q17.0469 51.1719 13.2344 47.9688
Q9.42188 44.7812 9.42188 40.5781
Q9.42188 36.4219 12.6406 33.4844
Q15.875 30.5625 25.4375 28.375
Q34.2812 26.3125 38.8438 22.7656
Q43.4062 19.2344 43.4062 12.8906
Q43.4062 6.6875 38.3281 2.82812
Q33.25 -1.03125 24.8594 -1.03125
Q15.625 -1.03125 10.375 3.09375
Q5.125 7.23438 5.46875 13.1406
L5.5625 13.4219
L7.71875 13.4219
Q8.10938 7.17188 13.0781 4.39062
Q18.0625 1.60938 24.8594 1.60938
Q32.1719 1.60938 36.4688 5.03125
Q40.7656 8.45312 40.7656 12.9375" id="Roboto-Thin-73"/>
      <path d="
M41.5469 9.76562
Q38.8125 4.98438 33.3906 1.96875
Q27.9844 -1.03125 20.2656 -1.03125
Q12.8906 -1.03125 8.6875 3
Q4.5 7.03125 4.5 13.875
Q4.5 20.5156 10.7656 25
Q17.0469 29.5 26.4688 29.5
L41.5469 29.5
L41.5469 37.2031
Q41.5469 43.7969 37.3281 47.4844
Q33.1094 51.1719 25.4375 51.1719
Q18.2656 51.1719 13.8906 47.7031
Q9.51562 44.2344 9.51562 38.7656
L7.32812 38.875
L7.23438 39.1094
Q6.9375 45.2656 12.0156 49.5312
Q17.0938 53.8125 25.4375 53.8125
Q33.9375 53.8125 39.0625 49.5156
Q44.1875 45.2188 44.1875 37.1094
L44.1875 10.6406
Q44.1875 7.85938 44.5 5.21875
Q44.8281 2.59375 45.5625 0
L42.625 0
Q42 3.46875 41.7656 5.20312
Q41.5469 6.9375 41.5469 8.9375
z

M20.2656 1.5625
Q28.125 1.5625 33.5625 5.03125
Q39.0156 8.5 41.5469 14.9375
L41.5469 26.8125
L26.6094 26.8125
Q18.4062 26.8125 12.7656 23.0156
Q7.125 19.2344 7.125 13.6719
Q7.125 8.34375 10.7188 4.95312
Q14.3125 1.5625 20.2656 1.5625" id="Roboto-Thin-61"/>
      <path d="
M13.875 67.0938
L13.875 52.8281
L26.8594 52.8281
L26.8594 50.1406
L13.875 50.1406
L13.875 13.625
Q13.875 7.125 16.0625 4.35938
Q18.2656 1.60938 21.875 1.60938
Q23.1875 1.60938 24.2188 1.70312
Q25.25 1.8125 27.0469 2.04688
L27.5469 -0.34375
Q26.3125 -0.734375 25 -0.875
Q23.6875 -1.03125 22.0156 -1.03125
Q16.7031 -1.03125 13.9375 2.4375
Q11.1875 5.90625 11.1875 13.625
L11.1875 50.1406
L1.42188 50.1406
L1.42188 52.8281
L11.1875 52.8281
L11.1875 67.0938
z
" id="Roboto-Thin-74"/>
      <path d="
M26.4219 -1.03125
Q17.3906 -1.03125 10.8125 6.26562
Q4.25 13.5781 4.25 24.4219
L4.25 27.5469
Q4.25 38.9219 10.5938 46.3594
Q16.9375 53.8125 26.2656 53.8125
Q35.2031 53.8125 40.8438 47.9531
Q46.4844 42.0938 46.4844 32.2344
L46.4844 28.1719
L6.89062 28.1719
L6.89062 27.5469
L6.89062 24.4219
Q6.89062 14.8438 12.5 8.21875
Q18.1094 1.60938 26.4219 1.60938
Q32.3281 1.60938 36.2969 3.21875
Q40.2812 4.82812 43.1094 8.0625
L44.5312 6
Q41.4062 2.54688 36.9375 0.75
Q32.4688 -1.03125 26.4219 -1.03125
M26.2656 51.1719
Q18.4062 51.1719 13.1719 45.4375
Q7.95312 39.7031 7.28125 31.1094
L7.42188 30.8125
L43.8438 30.8125
L43.8438 32.4219
Q43.8438 40.4844 38.9531 45.8281
Q34.0781 51.1719 26.2656 51.1719" id="Roboto-Thin-65"/>
      <path d="
M21.2344 11.1875
L23.7344 4.04688
L24.0312 4.04688
L26.5625 11.1875
L42.8281 52.8281
L45.6562 52.8281
L25.0938 0.046875
L25.1406 0
L22.6094 0
L2.09375 52.8281
L4.9375 52.8281
z
" id="Roboto-Thin-76"/>
      <path d="
M11.6719 0
L9.03125 0
L9.03125 52.8281
L11.6719 52.8281
z

M11.6719 69.4375
L9.03125 69.4375
L9.03125 76.1719
L11.6719 76.1719
z
" id="Roboto-Thin-69"/>
      <path id="Roboto-Thin-20"/>
      <path d="
M11.6719 0
L9.03125 0
L9.03125 76.1719
L11.6719 76.1719
z
" id="Roboto-Thin-6c"/>
      <path d="
M4.25 27.4375
Q4.25 39.0625 10.6719 46.4375
Q17.0938 53.8125 27.3438 53.8125
Q37.6406 53.8125 44.0625 46.4375
Q50.4844 39.0625 50.4844 27.4375
L50.4844 25.3906
Q50.4844 13.7188 44.0625 6.34375
Q37.6406 -1.03125 27.4375 -1.03125
Q17.1406 -1.03125 10.6875 6.34375
Q4.25 13.7188 4.25 25.3906
z

M6.89062 25.3906
Q6.89062 15.4375 12.4531 8.51562
Q18.0156 1.60938 27.4375 1.60938
Q36.7188 1.60938 42.2812 8.54688
Q47.8594 15.4844 47.8594 25.3906
L47.8594 27.4375
Q47.8594 37.1562 42.2344 44.1562
Q36.625 51.1719 27.3438 51.1719
Q18.0156 51.1719 12.4531 44.1562
Q6.89062 37.1562 6.89062 27.4375
z
" id="Roboto-Thin-6f"/>
      <path d="
M12.1562 33.3438
L12.1562 -0.046875
L9.51562 -0.046875
L9.51562 71.0469
L32.1719 71.0469
Q43.4062 71.0469 49.4531 66.1875
Q55.5156 61.3281 55.5156 52
Q55.5156 46 51.6875 41.0938
Q47.8594 36.1875 41.2188 34.7188
Q48.875 33.4062 52.1875 29.1094
Q55.5156 24.8125 55.5156 18.1094
L55.5156 11.4219
Q55.5156 8.10938 56.3125 5.46875
Q57.125 2.82812 58.9844 1.17188
L58.9844 -0.046875
L56.3906 -0.046875
Q54.6406 1.95312 53.75 4.90625
Q52.875 7.85938 52.875 11.5312
L52.875 18.0156
Q52.875 25.25 47.9219 29.2969
Q42.9688 33.3438 33.7969 33.3438
z

M12.1562 35.9844
L31.6875 35.9844
Q42.5781 35.9844 47.7188 40.5781
Q52.875 45.1719 52.875 52
Q52.875 59.9688 47.6719 64.1875
Q42.4844 68.4062 32.1719 68.4062
L12.1562 68.4062
z
" id="Roboto-Thin-52"/>
      <path d="
M48.8281 34.9688
L12.4062 34.9688
L12.4062 0
L9.76562 0
L9.76562 71.0938
L53.8125 71.0938
L53.8125 68.4531
L12.4062 68.4531
L12.4062 37.7031
L48.8281 37.7031
z
" id="Roboto-Thin-46"/>
      <path d="
M12.4062 30.5156
L12.4062 0
L9.76562 0
L9.76562 71.0938
L31.9844 71.0938
Q43.0156 71.0938 48.9688 65.5469
Q54.9375 60.0156 54.9375 50.8281
Q54.9375 41.5469 49 36.0312
Q43.0625 30.5156 31.9844 30.5156
z

M12.4062 33.1562
L31.9844 33.1562
Q42.0938 33.1562 47.1875 38.1875
Q52.2969 43.2188 52.2969 50.7344
Q52.2969 58.4531 47.2188 63.4531
Q42.1406 68.4531 31.9844 68.4531
L12.4062 68.4531
z
" id="Roboto-Thin-50"/>
     </defs>
     <g style="fill:#555555;" transform="translate(220.29265625 421.07625)scale(0.12 -0.12)">
      <use xlink:href="#Roboto-Thin-46"/>
      <use x="57.2265625" xlink:href="#Roboto-Thin-61"/>
      <use x="110.009765625" xlink:href="#Roboto-Thin-6c"/>
      <use x="130.615234375" xlink:href="#Roboto-Thin-73"/>
      <use x="180.37109375" xlink:href="#Roboto-Thin-65"/>
      <use x="230.76171875" xlink:href="#Roboto-Thin-20"/>
      <use x="254.6875" xlink:href="#Roboto-Thin-50"/>
      <use x="314.74609375" xlink:href="#Roboto-Thin-6f"/>
      <use x="369.482421875" xlink:href="#Roboto-Thin-73"/>
      <use x="419.23828125" xlink:href="#Roboto-Thin-69"/>
      <use x="439.84375" xlink:href="#Roboto-Thin-74"/>
      <use x="470.751953125" xlink:href="#Roboto-Thin-69"/>
      <use x="491.357421875" xlink:href="#Roboto-Thin-76"/>
      <use x="539.111328125" xlink:href="#Roboto-Thin-65"/>
      <use x="589.501953125" xlink:href="#Roboto-Thin-20"/>
      <use x="613.427734375" xlink:href="#Roboto-Thin-52"/>
      <use x="678.857421875" xlink:href="#Roboto-Thin-61"/>
      <use x="731.640625" xlink:href="#Roboto-Thin-74"/>
      <use x="762.548828125" xlink:href="#Roboto-Thin-65"/>
     </g>
    </g>
   </g>
   <g id="matplotlib.axis_2">
    <g id="ytick_1">
     <g id="line2d_19">
      <path clip-path="url(#p4ab6bb4454)" d="
M44.4691 376.219
L493.2 376.219" style="fill:none;stroke:#000000;stroke-dasharray:1.000000,3.000000;stroke-dashoffset:0.0;stroke-linecap:butt;stroke-width:0.5;"/>
     </g>
     <g id="line2d_20">
      <g>
       <use style="fill:#555555;stroke:#555555;stroke-linecap:butt;stroke-width:0.5;" x="44.4690625" xlink:href="#m080760d0c3" y="376.219090909"/>
      </g>
     </g>
     <g id="line2d_21">
      <g>
       <use style="fill:#555555;stroke:#555555;stroke-linecap:butt;stroke-width:0.5;" x="493.2" xlink:href="#m080760d0c3" y="376.219090909"/>
      </g>
     </g>
     <g id="text_8">
      <!-- 0.0 -->
      <g style="fill:#555555;" transform="translate(25.3284375 379.773778409)scale(0.1 -0.1)">
       <use xlink:href="#Roboto-Medium-30"/>
       <use x="56.8359375" xlink:href="#Roboto-Medium-2e"/>
       <use x="84.765625" xlink:href="#Roboto-Medium-30"/>
      </g>
     </g>
    </g>
    <g id="ytick_2">
     <g id="line2d_22">
      <path clip-path="url(#p4ab6bb4454)" d="
M44.4691 306.615
L493.2 306.615" style="fill:none;stroke:#000000;stroke-dasharray:1.000000,3.000000;stroke-dashoffset:0.0;stroke-linecap:butt;stroke-width:0.5;"/>
     </g>
     <g id="line2d_23">
      <g>
       <use style="fill:#555555;stroke:#555555;stroke-linecap:butt;stroke-width:0.5;" x="44.4690625" xlink:href="#m080760d0c3" y="306.615454545"/>
      </g>
     </g>
     <g id="line2d_24">
      <g>
       <use style="fill:#555555;stroke:#555555;stroke-linecap:butt;stroke-width:0.5;" x="493.2" xlink:href="#m080760d0c3" y="306.615454545"/>
      </g>
     </g>
     <g id="text_9">
      <!-- 0.2 -->
      <g style="fill:#555555;" transform="translate(25.2440625 310.170142045)scale(0.1 -0.1)">
       <use xlink:href="#Roboto-Medium-30"/>
       <use x="56.8359375" xlink:href="#Roboto-Medium-2e"/>
       <use x="84.765625" xlink:href="#Roboto-Medium-32"/>
      </g>
     </g>
    </g>
    <g id="ytick_3">
     <g id="line2d_25">
      <path clip-path="url(#p4ab6bb4454)" d="
M44.4691 237.012
L493.2 237.012" style="fill:none;stroke:#000000;stroke-dasharray:1.000000,3.000000;stroke-dashoffset:0.0;stroke-linecap:butt;stroke-width:0.5;"/>
     </g>
     <g id="line2d_26">
      <g>
       <use style="fill:#555555;stroke:#555555;stroke-linecap:butt;stroke-width:0.5;" x="44.4690625" xlink:href="#m080760d0c3" y="237.011818182"/>
      </g>
     </g>
     <g id="line2d_27">
      <g>
       <use style="fill:#555555;stroke:#555555;stroke-linecap:butt;stroke-width:0.5;" x="493.2" xlink:href="#m080760d0c3" y="237.011818182"/>
      </g>
     </g>
     <g id="text_10">
      <!-- 0.4 -->
      <g style="fill:#555555;" transform="translate(25.064375 240.566505682)scale(0.1 -0.1)">
       <use xlink:href="#Roboto-Medium-30"/>
       <use x="56.8359375" xlink:href="#Roboto-Medium-2e"/>
       <use x="84.765625" xlink:href="#Roboto-Medium-34"/>
      </g>
     </g>
    </g>
    <g id="ytick_4">
     <g id="line2d_28">
      <path clip-path="url(#p4ab6bb4454)" d="
M44.4691 167.408
L493.2 167.408" style="fill:none;stroke:#000000;stroke-dasharray:1.000000,3.000000;stroke-dashoffset:0.0;stroke-linecap:butt;stroke-width:0.5;"/>
     </g>
     <g id="line2d_29">
      <g>
       <use style="fill:#555555;stroke:#555555;stroke-linecap:butt;stroke-width:0.5;" x="44.4690625" xlink:href="#m080760d0c3" y="167.408181818"/>
      </g>
     </g>
     <g id="line2d_30">
      <g>
       <use style="fill:#555555;stroke:#555555;stroke-linecap:butt;stroke-width:0.5;" x="493.2" xlink:href="#m080760d0c3" y="167.408181818"/>
      </g>
     </g>
     <g id="text_11">
      <!-- 0.6 -->
      <g style="fill:#555555;" transform="translate(25.1565625 170.962869318)scale(0.1 -0.1)">
       <use xlink:href="#Roboto-Medium-30"/>
       <use x="56.8359375" xlink:href="#Roboto-Medium-2e"/>
       <use x="84.765625" xlink:href="#Roboto-Medium-36"/>
      </g>
     </g>
    </g>
    <g id="ytick_5">
     <g id="line2d_31">
      <path clip-path="url(#p4ab6bb4454)" d="
M44.4691 97.8045
L493.2 97.8045" style="fill:none;stroke:#000000;stroke-dasharray:1.000000,3.000000;stroke-dashoffset:0.0;stroke-linecap:butt;stroke-width:0.5;"/>
     </g>
     <g id="line2d_32">
      <g>
       <use style="fill:#555555;stroke:#555555;stroke-linecap:butt;stroke-width:0.5;" x="44.4690625" xlink:href="#m080760d0c3" y="97.8045454545"/>
      </g>
     </g>
     <g id="line2d_33">
      <g>
       <use style="fill:#555555;stroke:#555555;stroke-linecap:butt;stroke-width:0.5;" x="493.2" xlink:href="#m080760d0c3" y="97.8045454545"/>
      </g>
     </g>
     <g id="text_12">
      <!-- 0.8 -->
      <g style="fill:#555555;" transform="translate(25.2940625 101.359232955)scale(0.1 -0.1)">
       <use xlink:href="#Roboto-Medium-30"/>
       <use x="56.8359375" xlink:href="#Roboto-Medium-2e"/>
       <use x="84.765625" xlink:href="#Roboto-Medium-38"/>
      </g>
     </g>
    </g>
    <g id="ytick_6">
     <g id="line2d_34">
      <path clip-path="url(#p4ab6bb4454)" d="
M44.4691 28.2009
L493.2 28.2009" style="fill:none;stroke:#000000;stroke-dasharray:1.000000,3.000000;stroke-dashoffset:0.0;stroke-linecap:butt;stroke-width:0.5;"/>
     </g>
     <g id="line2d_35">
      <g>
       <use style="fill:#555555;stroke:#555555;stroke-linecap:butt;stroke-width:0.5;" x="44.4690625" xlink:href="#m080760d0c3" y="28.2009090909"/>
      </g>
     </g>
     <g id="line2d_36">
      <g>
       <use style="fill:#555555;stroke:#555555;stroke-linecap:butt;stroke-width:0.5;" x="493.2" xlink:href="#m080760d0c3" y="28.2009090909"/>
      </g>
     </g>
     <g id="text_13">
      <!-- 1.0 -->
      <g style="fill:#555555;" transform="translate(25.6940625 31.7555965909)scale(0.1 -0.1)">
       <use xlink:href="#Roboto-Medium-31"/>
       <use x="56.8359375" xlink:href="#Roboto-Medium-2e"/>
       <use x="84.765625" xlink:href="#Roboto-Medium-30"/>
      </g>
     </g>
    </g>
    <g id="text_14">
     <!-- True Positive Rate -->
     <defs>
      <path d="
M31.6875 50.9219
L28.2656 51.2188
Q21.1875 51.2188 16.7656 46.6562
Q12.3594 42.0938 11.0312 34.625
L11.0312 0
L8.40625 0
L8.40625 52.8281
L10.5469 52.8281
L11.0312 43.6562
L11.0312 41.8438
Q13.2344 47.5156 17.5781 50.6562
Q21.9219 53.8125 28.2656 53.8125
Q29.3906 53.8125 30.3438 53.6406
Q31.2969 53.4688 31.9844 53.2656
z
" id="Roboto-Thin-72"/>
      <path d="
M43.8906 9.46875
Q41.4062 4.4375 36.7812 1.70312
Q32.1719 -1.03125 25.5938 -1.03125
Q17.4375 -1.03125 12.8125 4.75
Q8.20312 10.5469 8.20312 22.7031
L8.20312 52.8281
L10.8438 52.8281
L10.8438 22.6094
Q10.8438 11.8594 14.7969 6.73438
Q18.75 1.60938 25.4844 1.60938
Q33.7344 1.60938 38.1562 5.65625
Q42.5781 9.71875 43.7969 16.4062
L43.7969 52.8281
L46.4844 52.8281
L46.4844 0
L44.2812 0
z
" id="Roboto-Thin-75"/>
      <path d="
M57.0781 68.4531
L31.2031 68.4531
L31.2031 0
L28.5625 0
L28.5625 68.4531
L2.6875 68.4531
L2.6875 71.0938
L57.0781 71.0938
z
" id="Roboto-Thin-54"/>
     </defs>
     <g style="fill:#555555;" transform="translate(20.064375 248.4503125)rotate(-90.0)scale(0.12 -0.12)">
      <use xlink:href="#Roboto-Thin-54"/>
      <use x="56.140625" xlink:href="#Roboto-Thin-72"/>
      <use x="89.34375" xlink:href="#Roboto-Thin-75"/>
      <use x="144.080078125" xlink:href="#Roboto-Thin-65"/>
      <use x="194.470703125" xlink:href="#Roboto-Thin-20"/>
      <use x="218.396484375" xlink:href="#Roboto-Thin-50"/>
      <use x="278.455078125" xlink:href="#Roboto-Thin-6f"/>
      <use x="333.19140625" xlink:href="#Roboto-Thin-73"/>
      <use x="382.947265625" xlink:href="#Roboto-Thin-69"/>
      <use x="403.552734375" xlink:href="#Roboto-Thin-74"/>
      <use x="434.4609375" xlink:href="#Roboto-Thin-69"/>
      <use x="455.06640625" xlink:href="#Roboto-Thin-76"/>
      <use x="502.8203125" xlink:href="#Roboto-Thin-65"/>
      <use x="553.2109375" xlink:href="#Roboto-Thin-20"/>
      <use x="577.13671875" xlink:href="#Roboto-Thin-52"/>
      <use x="642.56640625" xlink:href="#Roboto-Thin-61"/>
      <use x="695.349609375" xlink:href="#Roboto-Thin-74"/>
      <use x="726.2578125" xlink:href="#Roboto-Thin-65"/>
     </g>
    </g>
   </g>
   <g id="line2d_37">
    <path clip-path="url(#p4ab6bb4454)" d="
M64.8659 375.33
L68.9865 333.416
L73.1071 315.771
L77.2277 293.548
L81.3482 271.769
L85.4688 262.88
L89.5894 247.323
L93.71 238.879
L97.8305 225.875
L101.951 220.405
L106.072 213.368
L110.192 208.655
L114.313 202.271
L118.433 198.376
L122.554 192.654
L126.675 187.32
L130.795 175.764
L134.916 169.986
L139.036 165.986
L143.157 162.632
L147.277 157.673
L151.398 153.985
L155.519 148.652
L159.639 142.874
L163.76 139.345
L167.88 135.762
L172.001 131.762
L176.122 128.206
L180.242 125.736
L184.363 123.317
L188.483 120.65
L192.604 118.341
L196.724 115.317
L200.845 113.094
L204.966 108.65
L209.086 106.872
L213.207 103.154
L217.327 101.094
L221.448 99.7602
L225.568 97.0934
L229.689 95.76
L233.81 93.0932
L237.93 90.6236
L242.051 90.4264
L246.171 86.8706
L250.292 84.6483
L254.413 81.537
L258.533 78.845
L262.654 77.5368
L266.774 75.3145
L270.895 73.5366
L275.015 71.7587
L279.136 69.5364
L283.257 68.6475
L287.377 67.7585
L291.498 67.1773
L295.618 64.2028
L299.739 62.8694
L303.859 62.4249
L307.98 60.7279
L312.101 57.9802
L316.221 55.7579
L320.342 51.7577
L324.462 51.3132
L328.583 50.8688
L332.703 49.5354
L336.824 49.0909
L340.945 47.0872
L345.065 45.9796
L349.186 45.0907
L353.306 42.8683
L357.427 41.9794
L361.548 40.646
L365.668 40.2015
L369.789 38.4237
L373.909 38.4237
L378.03 38.4237
L382.15 38.4237
L386.271 37.9792
L390.392 37.9792
L394.512 36.6458
L398.633 35.8726
L402.753 35.4447
L406.874 35.3124
L410.994 35.3124
L415.115 34.8679
L419.236 33.682
L423.356 33.0901
L427.477 33.0901
L431.597 33.0901
L435.718 32.3297
L439.839 31.7567
L443.959 31.3122
L448.08 30.4232
L452.2 29.9788
L456.321 29.9788
L460.441 29.9788
L464.562 29.9788
L468.683 29.5343
L472.803 28.2009" style="fill:none;stroke:#348abd;stroke-width:2.0;"/>
   </g>
   <g id="line2d_38">
    <path clip-path="url(#p4ab6bb4454)" d="
M64.8659 376.219
L68.9865 361.237
L73.1071 346.255
L77.2277 331.273
L81.3482 316.291
L85.4688 302.087
L89.5894 288.173
L93.71 274.259
L97.8305 262.277
L101.951 251.597
L106.072 240.917
L110.192 229.711
L114.313 218.468
L118.433 209.525
L122.554 201.476
L126.675 193.427
L130.795 185.378
L134.916 177.329
L139.036 169.279
L143.157 163.178
L147.277 159.274
L151.398 157.749
L155.519 156.088
L159.639 154.427
L163.76 152.766
L167.88 151.105
L172.001 149.445
L176.122 147.784
L180.242 146.123
L184.363 144.462
L188.483 142.801
L192.604 141.14
L196.724 139.479
L200.845 137.818
L204.966 136.158
L209.086 134.497
L213.207 132.836
L217.327 131.175
L221.448 129.514
L225.568 127.853
L229.689 126.192
L233.81 124.531
L237.93 122.871
L242.051 121.21
L246.171 119.549
L250.292 117.888
L254.413 116.227
L258.533 114.566
L262.654 112.905
L266.774 111.244
L270.895 109.584
L275.015 107.923
L279.136 106.262
L283.257 104.601
L287.377 102.94
L291.498 101.279
L295.618 99.6184
L299.739 97.9575
L303.859 96.2966
L307.98 94.6358
L312.101 92.9749
L316.221 91.314
L320.342 89.6531
L324.462 87.9923
L328.583 86.3314
L332.703 84.6705
L336.824 83.0097
L340.945 81.3488
L345.065 79.6879
L349.186 78.027
L353.306 76.3662
L357.427 74.7053
L361.548 73.0444
L365.668 71.3836
L369.789 69.7227
L373.909 68.0618
L378.03 66.401
L382.15 64.7401
L386.271 63.0792
L390.392 61.4183
L394.512 59.7575
L398.633 58.0966
L402.753 56.4357
L406.874 54.7749
L410.994 53.114
L415.115 51.4531
L419.236 49.7922
L423.356 48.1314
L427.477 46.4705
L431.597 44.8096
L435.718 43.1488
L439.839 41.4879
L443.959 39.827
L448.08 38.1661
L452.2 36.5053
L456.321 34.8444
L460.441 33.1835
L464.562 31.5227
L468.683 29.8618
L472.803 28.2009" style="fill:none;stroke:#a60628;stroke-width:2.0;"/>
   </g>
   <g id="line2d_39">
    <path clip-path="url(#p4ab6bb4454)" d="
M64.8659 376.219
L68.9865 341.814
L73.1071 322.827
L77.2277 308.202
L81.3482 293.577
L85.4688 278.952
L89.5894 267.482
L93.71 259.899
L97.8305 252.316
L101.951 244.733
L106.072 237.15
L110.192 229.567
L114.313 221.984
L118.433 214.4
L122.554 206.817
L126.675 199.234
L130.795 191.651
L134.916 184.068
L139.036 176.485
L143.157 168.902
L147.277 161.319
L151.398 157.749
L155.519 156.088
L159.639 154.427
L163.76 152.766
L167.88 151.105
L172.001 149.445
L176.122 147.784
L180.242 146.123
L184.363 144.462
L188.483 142.801
L192.604 141.14
L196.724 139.479
L200.845 137.818
L204.966 136.158
L209.086 134.497
L213.207 132.836
L217.327 131.175
L221.448 129.514
L225.568 127.853
L229.689 126.192
L233.81 124.531
L237.93 122.871
L242.051 121.21
L246.171 119.549
L250.292 117.888
L254.413 116.227
L258.533 114.566
L262.654 112.905
L266.774 111.244
L270.895 109.584
L275.015 107.923
L279.136 106.262
L283.257 104.601
L287.377 102.94
L291.498 101.279
L295.618 99.6184
L299.739 97.9575
L303.859 96.2966
L307.98 94.6358
L312.101 92.9749
L316.221 91.314
L320.342 89.6531
L324.462 87.9923
L328.583 86.3314
L332.703 84.6705
L336.824 83.0097
L340.945 81.3488
L345.065 79.6879
L349.186 78.027
L353.306 76.3662
L357.427 74.7053
L361.548 73.0444
L365.668 71.3836
L369.789 69.7227
L373.909 68.0618
L378.03 66.401
L382.15 64.7401
L386.271 63.0792
L390.392 61.4183
L394.512 59.7575
L398.633 58.0966
L402.753 56.4357
L406.874 54.7749
L410.994 53.114
L415.115 51.4531
L419.236 49.7922
L423.356 48.1314
L427.477 46.4705
L431.597 44.8096
L435.718 43.1488
L439.839 41.4879
L443.959 39.827
L448.08 38.1661
L452.2 36.5053
L456.321 34.8444
L460.441 33.1835
L464.562 31.5227
L468.683 29.8618
L472.803 28.2009" style="fill:none;stroke:#467821;stroke-width:2.0;"/>
   </g>
   <g id="line2d_40">
    <path clip-path="url(#p4ab6bb4454)" d="
M64.8659 376.219
L68.9865 363.72
L73.1071 351.22
L77.2277 338.721
L81.3482 326.221
L85.4688 313.721
L89.5894 298.72
L93.71 287.849
L97.8305 278.006
L101.951 270.729
L106.072 261.284
L110.192 254.036
L114.313 246.879
L118.433 238.984
L122.554 233.671
L126.675 229.949
L130.795 225.477
L134.916 216.204
L139.036 210.877
L143.157 202.513
L147.277 199.281
L151.398 192.61
L155.519 186.698
L159.639 180.653
L163.76 179.552
L167.88 176.041
L172.001 172.844
L176.122 168.494
L180.242 160.876
L184.363 156.423
L188.483 152.652
L192.604 149.096
L196.724 146.409
L200.845 141.958
L204.966 139.326
L209.086 137.984
L213.207 135.188
L217.327 133.247
L221.448 131.522
L225.568 128.585
L229.689 124.694
L233.81 118.058
L237.93 113.165
L242.051 110.664
L246.171 110.037
L250.292 106.524
L254.413 102.871
L258.533 101.308
L262.654 98.3864
L266.774 96.5693
L270.895 96.0869
L275.015 94.273
L279.136 91.45
L283.257 89.9819
L287.377 87.5671
L291.498 82.8704
L295.618 82.0272
L299.739 77.9813
L303.859 76.6479
L307.98 74.1177
L312.101 71.7183
L316.221 71.3143
L320.342 69.1649
L324.462 66.2397
L328.583 64.3493
L332.703 61.7865
L336.824 60.0692
L340.945 58.8692
L345.065 57.9802
L349.186 55.3134
L353.306 54.4245
L357.427 54.4245
L361.548 54.4245
L365.668 54.0916
L369.789 53.0911
L373.909 51.5504
L378.03 49.6531
L382.15 48.0667
L386.271 47.313
L390.392 46.974
L394.512 46.8686
L398.633 46.8686
L402.753 45.7844
L406.874 44.6388
L410.994 41.5349
L415.115 41.5349
L419.236 41.5349
L423.356 41.4835
L427.477 41.1915
L431.597 40.4679
L435.718 39.7571
L439.839 38.0103
L443.959 37.0213
L448.08 36.6458
L452.2 36.0094
L456.321 35.3124
L460.441 34.4235
L464.562 32.6456
L468.683 32.6456
L472.803 28.2009" style="fill:none;stroke:#7a68a6;stroke-width:2.0;"/>
   </g>
   <g id="line2d_41">
    <path clip-path="url(#p4ab6bb4454)" d="
M64.8659 376.219
L68.9865 365.23
L73.1071 354.24
L77.2277 343.251
L81.3482 332.261
L85.4688 321.272
L89.5894 310.283
L93.71 299.293
L97.8305 288.826
L101.951 282.451
L106.072 276.075
L110.192 269.7
L114.313 263.324
L118.433 257.433
L122.554 251.89
L126.675 246.347
L130.795 240.828
L134.916 235.716
L139.036 230.605
L143.157 225.494
L147.277 221.333
L151.398 217.252
L155.519 213.17
L159.639 210.739
L163.76 208.337
L167.88 205.936
L172.001 203.534
L176.122 201.132
L180.242 198.73
L184.363 196.328
L188.483 193.926
L192.604 191.525
L196.724 189.123
L200.845 186.721
L204.966 184.319
L209.086 181.917
L213.207 179.516
L217.327 177.114
L221.448 174.712
L225.568 172.31
L229.689 169.908
L233.81 167.506
L237.93 165.105
L242.051 162.703
L246.171 160.301
L250.292 157.899
L254.413 155.497
L258.533 153.096
L262.654 150.694
L266.774 148.292
L270.895 145.89
L275.015 143.488
L279.136 141.086
L283.257 138.685
L287.377 136.283
L291.498 133.881
L295.618 131.479
L299.739 129.077
L303.859 126.676
L307.98 124.274
L312.101 121.872
L316.221 119.47
L320.342 117.068
L324.462 114.666
L328.583 112.265
L332.703 109.863
L336.824 107.461
L340.945 105.059
L345.065 102.657
L349.186 100.255
L353.306 97.8537
L357.427 95.4519
L361.548 93.05
L365.668 90.6482
L369.789 88.2464
L373.909 85.8446
L378.03 83.4428
L382.15 81.0409
L386.271 78.6391
L390.392 76.2373
L394.512 73.8355
L398.633 71.4337
L402.753 69.0318
L406.874 66.63
L410.994 64.2282
L415.115 61.8264
L419.236 59.4246
L423.356 57.0227
L427.477 54.6209
L431.597 52.2191
L435.718 49.8173
L439.839 47.4155
L443.959 45.0136
L448.08 42.6118
L452.2 40.21
L456.321 37.8082
L460.441 35.4064
L464.562 33.0045
L468.683 30.6027
L472.803 28.2009" style="fill:none;stroke:#cf4457;stroke-width:2.0;"/>
   </g>
   <g id="line2d_42">
    <path clip-path="url(#p4ab6bb4454)" d="
M64.8659 376.219
L68.9865 371.66
L73.1071 367.102
L77.2277 362.543
L81.3482 357.984
L85.4688 353.426
L89.5894 348.867
L93.71 344.308
L97.8305 339.749
L101.951 335.191
L106.072 330.632
L110.192 326.073
L114.313 321.515
L118.433 316.956
L122.554 312.397
L126.675 307.839
L130.795 303.28
L134.916 298.721
L139.036 294.162
L143.157 289.604
L147.277 285.045
L151.398 280.486
L155.519 275.928
L159.639 271.369
L163.76 266.81
L167.88 262.251
L172.001 257.693
L176.122 253.134
L180.242 248.575
L184.363 244.017
L188.483 239.458
L192.604 234.899
L196.724 230.372
L200.845 227.355
L204.966 224.337
L209.086 221.32
L213.207 218.302
L217.327 215.285
L221.448 212.267
L225.568 209.25
L229.689 206.232
L233.81 203.215
L237.93 200.197
L242.051 197.18
L246.171 194.162
L250.292 191.145
L254.413 188.127
L258.533 185.11
L262.654 182.092
L266.774 179.075
L270.895 176.057
L275.015 173.04
L279.136 170.022
L283.257 167.005
L287.377 163.987
L291.498 160.97
L295.618 157.953
L299.739 154.935
L303.859 151.918
L307.98 148.9
L312.101 145.883
L316.221 142.865
L320.342 139.848
L324.462 136.83
L328.583 133.813
L332.703 130.795
L336.824 127.778
L340.945 124.76
L345.065 121.743
L349.186 118.725
L353.306 115.708
L357.427 112.69
L361.548 109.673
L365.668 106.655
L369.789 103.638
L373.909 100.62
L378.03 97.6029
L382.15 94.5855
L386.271 91.568
L390.392 88.5505
L394.512 85.533
L398.633 82.5155
L402.753 79.4981
L406.874 76.4806
L410.994 73.4631
L415.115 70.4456
L419.236 67.4281
L423.356 64.4107
L427.477 61.3932
L431.597 58.3757
L435.718 55.3582
L439.839 52.3407
L443.959 49.3233
L448.08 46.3058
L452.2 43.2883
L456.321 40.2708
L460.441 37.2533
L464.562 34.2359
L468.683 31.2184
L472.803 28.2009" style="fill:none;stroke:#188487;stroke-width:2.0;"/>
   </g>
   <g id="line2d_43">
    <path clip-path="url(#p4ab6bb4454)" d="
M64.8659 376.219
L68.9865 371.431
L73.1071 366.643
L77.2277 361.855
L81.3482 357.067
L85.4688 352.279
L89.5894 347.491
L93.71 342.703
L97.8305 337.915
L101.951 333.127
L106.072 328.339
L110.192 323.551
L114.313 318.764
L118.433 313.976
L122.554 309.188
L126.675 304.4
L130.795 299.612
L134.916 294.824
L139.036 290.036
L143.157 285.248
L147.277 280.46
L151.398 275.672
L155.519 270.884
L159.639 266.096
L163.76 261.308
L167.88 256.52
L172.001 252.541
L176.122 249.468
L180.242 246.395
L184.363 243.321
L188.483 240.248
L192.604 237.175
L196.724 234.102
L200.845 231.029
L204.966 227.956
L209.086 224.883
L213.207 221.809
L217.327 218.736
L221.448 215.663
L225.568 212.59
L229.689 209.517
L233.81 206.444
L237.93 203.37
L242.051 200.297
L246.171 197.224
L250.292 194.151
L254.413 191.078
L258.533 188.005
L262.654 184.932
L266.774 181.858
L270.895 178.785
L275.015 175.712
L279.136 172.639
L283.257 169.566
L287.377 166.493
L291.498 163.42
L295.618 160.346
L299.739 157.273
L303.859 154.2
L307.98 151.127
L312.101 148.054
L316.221 144.981
L320.342 141.907
L324.462 138.834
L328.583 135.761
L332.703 132.688
L336.824 129.615
L340.945 126.542
L345.065 123.469
L349.186 120.395
L353.306 117.322
L357.427 114.249
L361.548 111.176
L365.668 108.103
L369.789 105.03
L373.909 101.957
L378.03 98.8834
L382.15 95.8102
L386.271 92.7371
L390.392 89.6639
L394.512 86.5908
L398.633 83.5176
L402.753 80.4445
L406.874 77.3713
L410.994 74.2982
L415.115 71.225
L419.236 68.1519
L423.356 65.0787
L427.477 62.0056
L431.597 58.9324
L435.718 55.8593
L439.839 52.7861
L443.959 49.713
L448.08 46.6398
L452.2 43.5667
L456.321 40.4935
L460.441 37.4204
L464.562 34.3472
L468.683 31.2741
L472.803 28.2009" style="fill:none;stroke:#e24a33;stroke-width:2.0;"/>
   </g>
   <g id="line2d_44">
    <path clip-path="url(#p4ab6bb4454)" d="
M64.8659 376.219
L472.803 28.2009" style="fill:none;stroke:#999999;stroke-dasharray:6.000000,6.000000;stroke-dashoffset:0.0;stroke-linecap:butt;stroke-width:2.0;"/>
   </g>
   <g id="patch_3">
    <path d="
M44.4691 10.8
L493.2 10.8" style="fill:none;stroke:#bcbcbc;"/>
   </g>
   <g id="patch_4">
    <path d="
M493.2 393.62
L493.2 10.8" style="fill:none;stroke:#bcbcbc;"/>
   </g>
   <g id="patch_5">
    <path d="
M44.4691 393.62
L493.2 393.62" style="fill:none;stroke:#bcbcbc;"/>
   </g>
   <g id="patch_6">
    <path d="
M44.4691 393.62
L44.4691 10.8" style="fill:none;stroke:#bcbcbc;"/>
   </g>
   <g id="legend_1">
    <g id="patch_7">
     <path d="
M232.472 388.62
L486.2 388.62
Q488.2 388.62 488.2 386.62
L488.2 268.806
Q488.2 266.806 486.2 266.806
L232.472 266.806
Q230.472 266.806 230.472 268.806
L230.472 386.62
Q230.472 388.62 232.472 388.62
z
" style="fill:#eeeeee;stroke:#bcbcbc;stroke-width:0.5;"/>
    </g>
    <g id="line2d_45">
     <path d="
M237.472 275.236
L251.472 275.236" style="fill:none;stroke:#348abd;stroke-width:2.0;"/>
    </g>
    <g id="line2d_46"/>
    <g id="text_15">
     <!-- All features (AUC = 0.79) -->
     <defs>
      <path d="
M21 65.6719
L21 52.8281
L30.4688 52.8281
L30.4688 44.0469
L21 44.0469
L21 14.8438
Q21 11.5781 22.4062 10.1875
Q23.8281 8.79688 26.1719 8.79688
Q27.1562 8.79688 28.0781 8.95312
Q29 9.125 29.8281 9.42188
L31.1094 0.734375
Q29.5938 -0.09375 27.4844 -0.5625
Q25.3906 -1.03125 23.1406 -1.03125
Q16.6094 -1.03125 12.8906 2.79688
Q9.1875 6.64062 9.1875 14.8438
L9.1875 44.0469
L1.125 44.0469
L1.125 52.8281
L9.1875 52.8281
L9.1875 65.6719
z
" id="Roboto-Medium-74"/>
      <path d="
M49.1719 38.5781
L7.07812 38.5781
L7.07812 48.4375
L49.1719 48.4375
z

M49.1719 17.875
L7.07812 17.875
L7.07812 27.6875
L49.1719 27.6875
z
" id="Roboto-Medium-3d"/>
      <path d="
M35.9375 14.3594
Q35.9375 17.0938 33.5938 18.8906
Q31.25 20.7031 24.8594 22.0781
Q15.375 24.0781 10.5156 27.7656
Q5.67188 31.4531 5.67188 37.7969
Q5.67188 44.4375 11.2812 49.125
Q16.8906 53.8125 26.0781 53.8125
Q35.75 53.8125 41.4375 49.0469
Q47.125 44.2812 46.875 37.25
L46.7812 36.9688
L35.4062 36.9688
Q35.4062 40.2344 32.9062 42.5781
Q30.4219 44.9219 26.0781 44.9219
Q21.7812 44.9219 19.5312 42.9844
Q17.2812 41.0625 17.2812 38.2812
Q17.2812 35.5 19.4062 33.8594
Q21.5312 32.2344 28.0312 30.9531
Q37.9844 28.9062 42.7969 25.1719
Q47.6094 21.4375 47.6094 14.9844
Q47.6094 7.85938 41.7188 3.40625
Q35.8438 -1.03125 26.2188 -1.03125
Q15.9219 -1.03125 9.95312 4.23438
Q4 9.51562 4.29688 16.3594
L4.39062 16.6562
L15.4375 16.6562
Q15.625 12.0625 18.75 9.95312
Q21.875 7.85938 26.375 7.85938
Q30.9531 7.85938 33.4375 9.60938
Q35.9375 11.375 35.9375 14.3594" id="Roboto-Medium-73"/>
      <path d="
M38.0312 0
Q37.4062 2 36.9844 3.90625
Q36.5781 5.8125 36.4219 7.71875
Q33.9844 4 30 1.48438
Q26.0312 -1.03125 21.0938 -1.03125
Q12.8438 -1.03125 8.42188 3.21875
Q4 7.46875 4 14.8906
Q4 22.5625 10.0469 26.8281
Q16.1094 31.1094 27.0938 31.1094
L36.3281 31.1094
L36.3281 35.75
Q36.3281 39.8906 33.8906 42.2344
Q31.4531 44.5781 26.9062 44.5781
Q22.8594 44.5781 20.4531 42.625
Q18.0625 40.6719 18.0625 37.5938
L6.64062 37.5938
L6.59375 37.8906
Q6.25 44.1406 12.1719 48.9688
Q18.1094 53.8125 27.6406 53.8125
Q36.8594 53.8125 42.5156 49.125
Q48.1875 44.4375 48.1875 35.6406
L48.1875 12.1562
Q48.1875 8.89062 48.625 5.875
Q49.0781 2.875 50.0469 0
z

M23.4844 8.5
Q27.9844 8.5 31.5625 10.7344
Q35.1562 12.9844 36.3281 15.875
L36.3281 23.6875
L26.9062 23.6875
Q21.7344 23.6875 18.7969 21.125
Q15.875 18.5625 15.875 15.0938
Q15.875 12.0625 17.8438 10.2812
Q19.8281 8.5 23.4844 8.5" id="Roboto-Medium-61"/>
      <path d="
M28.9062 -1.03125
Q17.6719 -1.03125 11 6.3125
Q4.34375 13.6719 4.34375 25.2031
L4.34375 27.1562
Q4.34375 38.6719 10.9531 46.2656
Q17.5781 53.8594 27.5469 53.8125
Q38.2344 53.8125 43.9219 47.3438
Q49.6094 40.875 49.6094 29.9844
L49.6094 23
L16.6562 23
L16.5469 22.75
Q16.8438 16.4531 20.2344 12.4531
Q23.6406 8.45312 29.6406 8.45312
Q34.4219 8.45312 37.8438 9.625
Q41.2656 10.7969 44.4375 12.9844
L48.25 5.21875
Q45.2656 2.59375 40.3281 0.78125
Q35.4062 -1.03125 28.9062 -1.03125
M27.5469 44.2812
Q23.1406 44.2812 20.3125 40.7969
Q17.4844 37.3125 16.7969 31.9375
L16.8906 31.6875
L37.8438 31.6875
L37.8438 32.9062
Q37.8438 37.9375 35.2812 41.1094
Q32.7188 44.2812 27.5469 44.2812" id="Roboto-Medium-65"/>
      <path d="
M10.1094 0
L10.1094 44.0469
L2.04688 44.0469
L2.04688 52.8281
L10.1094 52.8281
L10.1094 58.9844
Q10.1094 67.7188 14.8594 72.4531
Q19.625 77.2031 28.2188 77.2031
Q29.9375 77.2031 31.6875 76.9219
Q33.4531 76.6562 35.6406 76.1719
L34.4219 67
Q33.4531 67.1875 32.25 67.3281
Q31.0625 67.4844 29.6875 67.4844
Q25.8281 67.4844 23.8906 65.2812
Q21.9688 63.0938 21.9688 58.9844
L21.9688 52.8281
L32.7188 52.8281
L32.7188 44.0469
L21.9688 44.0469
L21.9688 0
z
" id="Roboto-Medium-66"/>
      <path d="
M46.2969 16.6094
L18.4531 16.6094
L12.7969 0
L0.78125 0
L26.9062 71.0938
L38.1406 71.0938
L63.9688 0
L51.9062 0
z

M21.875 26.5156
L42.9219 26.5156
L32.625 56.8906
L32.3281 56.8906
z
" id="Roboto-Medium-41"/>
      <path d="
M52.4844 61.5781
Q40.2344 47.1719 35.9375 35.5938
Q31.6406 24.0312 29.6875 7.51562
L28.9531 0
L17.0938 0
L17.8281 7.51562
Q19.7344 23.6406 25.4375 36.75
Q31.1562 49.8594 41.0156 61.5781
L3.375 61.5781
L3.375 71.0938
L52.4844 71.0938
z
" id="Roboto-Medium-37"/>
      <path id="Roboto-Medium-20"/>
      <path d="
M39.1562 7.71875
Q36.6719 3.51562 32.8594 1.23438
Q29.0469 -1.03125 24.0781 -1.03125
Q15.5781 -1.03125 10.7812 4.39062
Q6 9.8125 6 21.2344
L6 52.8281
L17.8281 52.8281
L17.8281 21.1406
Q17.8281 14.2031 20.0625 11.4219
Q22.3125 8.64062 26.8594 8.64062
Q31.1562 8.64062 34.0625 10.1719
Q36.9688 11.7188 38.625 14.6562
L38.625 52.8281
L50.4844 52.8281
L50.4844 0
L40.1406 0
z
" id="Roboto-Medium-75"/>
      <path d="
M32.5625 42.1406
L27.4844 42.3281
Q24.0312 42.3281 21.7031 40.8594
Q19.3906 39.4062 18.1094 36.7188
L18.1094 0
L6.25 0
L6.25 52.8281
L17.0938 52.8281
L17.875 45.1719
Q19.875 49.2188 23.0156 51.5156
Q26.1719 53.8125 30.2812 53.8125
Q31.3438 53.8125 32.2656 53.6406
Q33.2031 53.4688 33.9844 53.2188
z
" id="Roboto-Medium-72"/>
      <path d="
M59.625 23.5781
L59.7188 23.2969
Q59.9062 12.5 52.7031 5.73438
Q45.5156 -1.03125 33.2031 -1.03125
Q20.75 -1.03125 12.9531 7.34375
Q5.17188 15.7188 5.17188 28.7656
L5.17188 42.2812
Q5.17188 55.2812 12.8594 63.7031
Q20.5625 72.125 32.8594 72.125
Q45.4531 72.125 52.7031 65.5
Q59.9688 58.8906 59.7656 47.7031
L59.6719 47.4062
L48.1875 47.4062
Q48.1875 54.5938 44.3125 58.5938
Q40.4375 62.5938 32.8594 62.5938
Q25.5938 62.5938 21.3125 56.8281
Q17.0469 51.0781 17.0469 42.3906
L17.0469 28.7656
Q17.0469 19.9688 21.4062 14.2031
Q25.7812 8.45312 33.2031 8.45312
Q40.5781 8.45312 44.375 12.4062
Q48.1875 16.3594 48.1875 23.5781
z
" id="Roboto-Medium-43"/>
      <path d="
M61.7656 71.0938
L61.7656 23.4375
Q61.7656 11.625 54.0469 5.29688
Q46.3438 -1.03125 33.8906 -1.03125
Q21.6875 -1.03125 14.1094 5.3125
Q6.54688 11.6719 6.54688 23.4375
L6.54688 71.0938
L18.4062 71.0938
L18.4062 23.4375
Q18.4062 15.9688 22.6094 12.2031
Q26.8125 8.45312 33.8906 8.45312
Q41.2188 8.45312 45.5625 12.2031
Q49.9062 15.9688 49.9062 23.4375
L49.9062 71.0938
z
" id="Roboto-Medium-55"/>
      <path d="
M18.8906 0
L7.03125 0
L7.03125 76.1719
L18.8906 76.1719
z
" id="Roboto-Medium-6c"/>
      <path d="
M6.25 28.9062
Q6.25 48.1406 13.8906 61.6406
Q21.5312 75.1406 30.4219 79.2969
L30.7188 79.25
L32.9062 72.7031
Q26.375 67.7188 21.7031 56.7344
Q17.0469 45.75 17.0469 29
L17.0469 28.0312
Q17.0469 11.2812 21.6719 0.296875
Q26.3125 -10.6875 32.9062 -16.0156
L30.7188 -22.2656
L30.4219 -22.2656
Q21.4844 -18.0625 13.8594 -4.57812
Q6.25 8.89062 6.25 28.125
z
" id="Roboto-Medium-28"/>
      <path d="
M27.875 28.125
Q27.875 9.125 20.0938 -4.48438
Q12.3125 -18.1094 3.375 -22.2656
L3.07812 -22.2656
L0.828125 -16.0156
Q7.32812 -11.0312 12.0156 0.09375
Q16.7031 11.2344 16.7031 28.0312
L16.7031 29
Q16.7031 45.6094 11.8906 56.7656
Q7.07812 67.9219 0.828125 73
L3.07812 79.2969
L3.375 79.2969
Q12.25 75.2031 20.0625 61.5312
Q27.875 47.8594 27.875 28.9062
z
" id="Roboto-Medium-29"/>
      <path d="
M25.1406 8.45312
Q31.5 8.45312 35.4062 13.1562
Q39.3125 17.875 39.3125 26.9062
L39.3125 30.1719
Q36.9219 26.9062 33.4688 25.2188
Q30.0312 23.5312 25.9219 23.5312
Q15.7656 23.5312 9.875 29.9531
Q4 36.375 4 47.5625
Q4 58.2031 10.5938 65.1562
Q17.1875 72.125 26.9062 72.125
Q37.9375 72.125 44.5312 64.875
Q51.125 57.625 51.125 44
L51.125 27.3438
Q51.125 13.875 43.875 6.42188
Q36.625 -1.03125 25.1406 -1.03125
Q21.4844 -1.03125 17.5781 -0.296875
Q13.6719 0.4375 10.4062 1.90625
L11.9688 10.9844
Q14.9375 9.625 18.0625 9.03125
Q21.1875 8.45312 25.1406 8.45312
M27.0469 32.7656
Q31.5 32.7656 34.625 34.5156
Q37.75 36.2812 39.3125 39.0625
L39.3125 45.4062
Q39.3125 53.8594 36.125 58.2188
Q32.9531 62.5938 27.0938 62.5938
Q22.3125 62.5938 19.0938 58.3125
Q15.875 54.0469 15.875 47.5625
Q15.875 40.9219 18.8281 36.8438
Q21.7812 32.7656 27.0469 32.7656" id="Roboto-Medium-39"/>
     </defs>
     <g transform="translate(262.471875 278.735625)scale(0.1 -0.1)">
      <use xlink:href="#Roboto-Medium-41"/>
      <use x="64.453125" xlink:href="#Roboto-Medium-6c"/>
      <use x="90.380859375" xlink:href="#Roboto-Medium-6c"/>
      <use x="116.30859375" xlink:href="#Roboto-Medium-20"/>
      <use x="141.2109375" xlink:href="#Roboto-Medium-66"/>
      <use x="176.318359375" xlink:href="#Roboto-Medium-65"/>
      <use x="229.248046875" xlink:href="#Roboto-Medium-61"/>
      <use x="283.642578125" xlink:href="#Roboto-Medium-74"/>
      <use x="318.408203125" xlink:href="#Roboto-Medium-75"/>
      <use x="375.048828125" xlink:href="#Roboto-Medium-72"/>
      <use x="409.66796875" xlink:href="#Roboto-Medium-65"/>
      <use x="462.59765625" xlink:href="#Roboto-Medium-73"/>
      <use x="514.599609375" xlink:href="#Roboto-Medium-20"/>
      <use x="539.501953125" xlink:href="#Roboto-Medium-28"/>
      <use x="573.4375" xlink:href="#Roboto-Medium-41"/>
      <use x="637.890625" xlink:href="#Roboto-Medium-55"/>
      <use x="706.0546875" xlink:href="#Roboto-Medium-43"/>
      <use x="769.62890625" xlink:href="#Roboto-Medium-20"/>
      <use x="794.53125" xlink:href="#Roboto-Medium-3d"/>
      <use x="851.46484375" xlink:href="#Roboto-Medium-20"/>
      <use x="876.3671875" xlink:href="#Roboto-Medium-30"/>
      <use x="933.203125" xlink:href="#Roboto-Medium-2e"/>
      <use x="961.1328125" xlink:href="#Roboto-Medium-37"/>
      <use x="1017.96875" xlink:href="#Roboto-Medium-39"/>
      <use x="1074.8046875" xlink:href="#Roboto-Medium-29"/>
     </g>
    </g>
    <g id="line2d_47">
     <path d="
M237.472 290.392
L251.472 290.392" style="fill:none;stroke:#a60628;stroke-width:2.0;"/>
    </g>
    <g id="line2d_48"/>
    <g id="text_16">
     <!-- FTMap.CS-normalized-rank (AUC = 0.72) -->
     <defs>
      <path d="
M29.1094 25.4375
L3.46875 25.4375
L3.46875 35.0156
L29.1094 35.0156
z
" id="Roboto-Medium-2d"/>
      <path d="
M18.8906 0
L7.03125 0
L7.03125 52.8281
L18.8906 52.8281
z

M18.8906 65.7656
L7.03125 65.7656
L7.03125 76.1719
L18.8906 76.1719
z
" id="Roboto-Medium-69"/>
      <path d="
M23.4375 23.0938
L18.1094 23.0938
L18.1094 0
L6.29688 0
L6.29688 76.1719
L18.1094 76.1719
L18.1094 32.625
L23.0469 32.625
L36.375 52.8281
L50.3438 52.8281
L32.9062 28.8125
L52.9375 0
L39.1562 0
z
" id="Roboto-Medium-6b"/>
      <path d="
M50.7812 30.3281
L19.625 30.3281
L19.625 0
L7.76562 0
L7.76562 71.0938
L55.7656 71.0938
L55.7656 61.5781
L19.625 61.5781
L19.625 39.8438
L50.7812 39.8438
z
" id="Roboto-Medium-46"/>
      <path d="
M18.8438 9.46875
L47.0781 9.46875
L47.0781 0
L4.15625 0
L4.15625 7.76562
L30.8125 43.2656
L4.6875 43.2656
L4.6875 52.8281
L45.7969 52.8281
L45.7969 45.3125
z
" id="Roboto-Medium-7a"/>
      <path d="
M52.5469 24.6562
Q52.5469 13.1406 47.125 6.04688
Q41.7031 -1.03125 32.0312 -1.03125
Q27.5469 -1.03125 24.0781 0.578125
Q20.6094 2.20312 18.1094 5.32812
L18.1094 -20.3125
L6.25 -20.3125
L6.25 52.8281
L16.2656 52.8281
L17.4375 46.1875
Q19.9688 49.9062 23.5625 51.8594
Q27.1562 53.8125 31.8906 53.8125
Q41.6562 53.8125 47.0938 46.0625
Q52.5469 38.3281 52.5469 25.6875
z

M40.7188 25.6875
Q40.7188 33.7969 37.6719 38.9375
Q34.625 44.0938 28.5625 44.0938
Q24.8594 44.0938 22.2656 42.5
Q19.6719 40.9219 18.1094 38.0938
L18.1094 14.2031
Q19.6719 11.4219 22.2656 9.9375
Q24.8594 8.45312 28.6562 8.45312
Q34.7188 8.45312 37.7188 12.9219
Q40.7188 17.3906 40.7188 24.6562
z
" id="Roboto-Medium-70"/>
      <path d="
M4.04688 25.6875
Q4.04688 38.3281 9.46875 46.0625
Q14.8906 53.8125 24.7031 53.8125
Q29 53.8125 32.3906 52.0781
Q35.7969 50.3438 38.2812 47.125
L38.2812 76.1719
L50.1406 76.1719
L50.1406 0
L40.1875 0
L39.0156 6.54688
Q36.4688 2.82812 32.9062 0.890625
Q29.3438 -1.03125 24.6094 -1.03125
Q14.8906 -1.03125 9.46875 6.04688
Q4.04688 13.1406 4.04688 24.6562
z

M15.9219 24.6562
Q15.9219 17.3281 18.7188 12.9844
Q21.5312 8.64062 27.6406 8.64062
Q31.3906 8.64062 34 10.25
Q36.625 11.8594 38.2812 14.8438
L38.2812 37.8906
Q36.625 40.8281 33.9844 42.4531
Q31.3438 44.0938 27.7344 44.0938
Q21.6875 44.0938 18.7969 38.9844
Q15.9219 33.8906 15.9219 25.6875
z
" id="Roboto-Medium-64"/>
      <path d="
M46.2969 18.2656
Q46.2969 22.7031 43 25.5312
Q39.7031 28.375 31.3438 30.6094
Q19.4375 33.7344 13.0156 38.8906
Q6.59375 44.0469 6.59375 52.3906
Q6.59375 60.9844 13.6875 66.5469
Q20.7969 72.125 32.0312 72.125
Q43.75 72.125 50.8438 65.8125
Q57.9531 59.5156 57.7188 50.6875
L57.625 50.3906
L46.2344 50.3906
Q46.2344 55.8594 42.5156 59.25
Q38.8125 62.6406 31.9375 62.6406
Q25.4375 62.6406 21.9375 59.8125
Q18.4531 56.9844 18.4531 52.4844
Q18.4531 48.4375 22.2344 45.75
Q26.0312 43.0625 34.7656 40.6719
Q46.2344 37.5938 52.1875 32.1719
Q58.1562 26.7656 58.1562 18.3594
Q58.1562 9.46875 51.0469 4.21875
Q43.9531 -1.03125 32.375 -1.03125
Q21.2344 -1.03125 12.8281 4.85938
Q4.4375 10.75 4.6875 21
L4.78125 21.2969
L16.2188 21.2969
Q16.2188 14.7969 20.7031 11.5938
Q25.2031 8.40625 32.375 8.40625
Q38.9688 8.40625 42.625 11.0625
Q46.2969 13.7188 46.2969 18.2656" id="Roboto-Medium-53"/>
      <path d="
M56.3438 61.5781
L34.8594 61.5781
L34.8594 0
L23 0
L23 61.5781
L1.51562 61.5781
L1.51562 71.0938
L56.3438 71.0938
z
" id="Roboto-Medium-54"/>
      <path d="
M23.1406 71.0938
L43.6094 16.4062
L43.8906 16.4062
L64.4062 71.0938
L79.7812 71.0938
L79.7812 0
L67.9219 0
L67.9219 24.2188
L69.0938 55.0312
L68.7969 55.0781
L47.7031 0
L39.75 0
L18.75 54.9375
L18.4531 54.8906
L19.625 24.2188
L19.625 0
L7.76562 0
L7.76562 71.0938
z
" id="Roboto-Medium-4d"/>
      <path d="
M17.0938 52.8281
L17.7188 45.9531
Q20.3125 49.7031 24.2188 51.75
Q28.125 53.8125 33.25 53.8125
Q38.4219 53.8125 42.125 51.4688
Q45.8438 49.125 47.7031 44.4375
Q50.1406 48.8281 54.1406 51.3125
Q58.1562 53.8125 63.5312 53.8125
Q71.4844 53.8125 76.0938 48.3594
Q80.7188 42.9219 80.7188 31.8438
L80.7188 0
L68.8438 0
L68.8438 31.8906
Q68.8438 38.625 66.5156 41.3594
Q64.2031 44.0938 59.5781 44.0938
Q55.7656 44.0938 53.125 42.0312
Q50.4844 39.9844 49.3125 36.5312
Q49.3125 35.7969 49.3594 35.25
Q49.4219 34.7188 49.4219 34.2344
L49.4219 0
L37.5469 0
L37.5469 31.8906
Q37.5469 38.375 35.1719 41.2344
Q32.8125 44.0938 28.2188 44.0938
Q24.6094 44.0938 22.0938 42.7031
Q19.5781 41.3125 18.1094 38.7656
L18.1094 0
L6.25 0
L6.25 52.8281
z
" id="Roboto-Medium-6d"/>
      <path d="
M17 52.8281
L17.6719 45.2188
Q20.2656 49.2656 24.1875 51.5312
Q28.125 53.8125 33.0625 53.8125
Q41.3125 53.8125 45.9219 48.7969
Q50.5312 43.7969 50.5312 33.2031
L50.5312 0
L38.6719 0
L38.6719 33.1094
Q38.6719 39.0625 36.2031 41.5781
Q33.7344 44.0938 28.7188 44.0938
Q25.25 44.0938 22.5156 42.5469
Q19.7812 41.0156 18.0156 38.3281
L18.0156 0
L6.15625 0
L6.15625 52.8281
z
" id="Roboto-Medium-6e"/>
      <path d="
M4.04688 26.9062
Q4.04688 38.6719 10.5 46.2344
Q17.0469 53.8125 28.2188 53.8125
Q39.5938 53.8125 46.0469 46.2344
Q52.5469 38.7188 52.5469 26.9062
L52.5469 25.875
Q52.5469 13.9688 46.0469 6.45312
Q39.5938 -1.03125 28.3281 -1.03125
Q17 -1.03125 10.5 6.5
Q4.04688 14.0156 4.04688 25.875
z

M15.9219 25.875
Q15.9219 18.1719 18.9531 13.2812
Q21.9219 8.45312 28.3281 8.45312
Q34.5156 8.45312 37.5938 13.2812
Q40.7188 18.1719 40.7188 25.875
L40.7188 26.9062
Q40.7188 34.4688 37.5938 39.3594
Q34.5156 44.2812 28.2188 44.2812
Q22.0156 44.2812 18.9531 39.3594
Q15.9219 34.4219 15.9219 26.9062
z
" id="Roboto-Medium-6f"/>
     </defs>
     <g transform="translate(262.471875 293.891875)scale(0.1 -0.1)">
      <use xlink:href="#Roboto-Medium-46"/>
      <use x="58.0078125" xlink:href="#Roboto-Medium-54"/>
      <use x="115.869140625" xlink:href="#Roboto-Medium-4d"/>
      <use x="203.466796875" xlink:href="#Roboto-Medium-61"/>
      <use x="257.861328125" xlink:href="#Roboto-Medium-70"/>
      <use x="314.501953125" xlink:href="#Roboto-Medium-2e"/>
      <use x="342.431640625" xlink:href="#Roboto-Medium-43"/>
      <use x="406.005859375" xlink:href="#Roboto-Medium-53"/>
      <use x="468.896484375" xlink:href="#Roboto-Medium-2d"/>
      <use x="501.708984375" xlink:href="#Roboto-Medium-6e"/>
      <use x="558.349609375" xlink:href="#Roboto-Medium-6f"/>
      <use x="614.990234375" xlink:href="#Roboto-Medium-72"/>
      <use x="649.609375" xlink:href="#Roboto-Medium-6d"/>
      <use x="736.572265625" xlink:href="#Roboto-Medium-61"/>
      <use x="790.966796875" xlink:href="#Roboto-Medium-6c"/>
      <use x="816.89453125" xlink:href="#Roboto-Medium-69"/>
      <use x="842.822265625" xlink:href="#Roboto-Medium-7a"/>
      <use x="893.505859375" xlink:href="#Roboto-Medium-65"/>
      <use x="946.435546875" xlink:href="#Roboto-Medium-64"/>
      <use x="1003.07617188" xlink:href="#Roboto-Medium-2d"/>
      <use x="1035.88867188" xlink:href="#Roboto-Medium-72"/>
      <use x="1070.5078125" xlink:href="#Roboto-Medium-61"/>
      <use x="1124.90234375" xlink:href="#Roboto-Medium-6e"/>
      <use x="1181.54296875" xlink:href="#Roboto-Medium-6b"/>
      <use x="1233.88671875" xlink:href="#Roboto-Medium-20"/>
      <use x="1258.7890625" xlink:href="#Roboto-Medium-28"/>
      <use x="1292.72460938" xlink:href="#Roboto-Medium-41"/>
      <use x="1357.17773438" xlink:href="#Roboto-Medium-55"/>
      <use x="1425.34179688" xlink:href="#Roboto-Medium-43"/>
      <use x="1488.91601562" xlink:href="#Roboto-Medium-20"/>
      <use x="1513.81835938" xlink:href="#Roboto-Medium-3d"/>
      <use x="1570.75195312" xlink:href="#Roboto-Medium-20"/>
      <use x="1595.65429688" xlink:href="#Roboto-Medium-30"/>
      <use x="1652.49023438" xlink:href="#Roboto-Medium-2e"/>
      <use x="1680.41992188" xlink:href="#Roboto-Medium-37"/>
      <use x="1737.25585938" xlink:href="#Roboto-Medium-32"/>
      <use x="1794.09179688" xlink:href="#Roboto-Medium-29"/>
     </g>
    </g>
    <g id="line2d_49">
     <path d="
M237.472 305.548
L251.472 305.548" style="fill:none;stroke:#467821;stroke-width:2.0;"/>
    </g>
    <g id="line2d_50"/>
    <g id="text_17">
     <!-- FTMap.Number-of-CSs (AUC = 0.72) -->
     <defs>
      <path d="
M52.6406 24.6562
Q52.6406 13.0938 47.2344 6.03125
Q41.8438 -1.03125 32.0312 -1.03125
Q27.0938 -1.03125 23.4531 0.96875
Q19.8281 2.98438 17.3906 6.84375
L16.2188 0
L6.25 0
L6.25 76.1719
L18.1094 76.1719
L18.1094 46.8281
Q20.5625 50.2031 23.9688 52
Q27.3906 53.8125 31.9375 53.8125
Q41.8438 53.8125 47.2344 46.0938
Q52.6406 38.375 52.6406 25.6875
z

M40.7656 25.6875
Q40.7656 33.9375 37.9375 39.0156
Q35.1094 44.0938 28.9531 44.0938
Q25 44.0938 22.3281 42.3281
Q19.6719 40.5781 18.1094 37.4531
L18.1094 15.2812
Q19.625 12.1094 22.3125 10.375
Q25 8.64062 29.0469 8.64062
Q35.2031 8.64062 37.9844 12.9531
Q40.7656 17.2812 40.7656 24.6562
z
" id="Roboto-Medium-62"/>
      <path d="
M63.2812 0
L51.4688 0
L19.9219 51.9062
L19.625 51.8125
L19.625 0
L7.76562 0
L7.76562 71.0938
L19.625 71.0938
L51.1719 19.2344
L51.4688 19.3438
L51.4688 71.0938
L63.2812 71.0938
z
" id="Roboto-Medium-4e"/>
     </defs>
     <g transform="translate(262.471875 309.048125)scale(0.1 -0.1)">
      <use xlink:href="#Roboto-Medium-46"/>
      <use x="58.0078125" xlink:href="#Roboto-Medium-54"/>
      <use x="115.869140625" xlink:href="#Roboto-Medium-4d"/>
      <use x="203.466796875" xlink:href="#Roboto-Medium-61"/>
      <use x="257.861328125" xlink:href="#Roboto-Medium-70"/>
      <use x="314.501953125" xlink:href="#Roboto-Medium-2e"/>
      <use x="342.431640625" xlink:href="#Roboto-Medium-4e"/>
      <use x="413.525390625" xlink:href="#Roboto-Medium-75"/>
      <use x="470.166015625" xlink:href="#Roboto-Medium-6d"/>
      <use x="557.12890625" xlink:href="#Roboto-Medium-62"/>
      <use x="613.76953125" xlink:href="#Roboto-Medium-65"/>
      <use x="666.69921875" xlink:href="#Roboto-Medium-72"/>
      <use x="701.318359375" xlink:href="#Roboto-Medium-2d"/>
      <use x="734.130859375" xlink:href="#Roboto-Medium-6f"/>
      <use x="790.771484375" xlink:href="#Roboto-Medium-66"/>
      <use x="825.87890625" xlink:href="#Roboto-Medium-2d"/>
      <use x="858.69140625" xlink:href="#Roboto-Medium-43"/>
      <use x="922.265625" xlink:href="#Roboto-Medium-53"/>
      <use x="985.15625" xlink:href="#Roboto-Medium-73"/>
      <use x="1037.15820312" xlink:href="#Roboto-Medium-20"/>
      <use x="1062.06054688" xlink:href="#Roboto-Medium-28"/>
      <use x="1095.99609375" xlink:href="#Roboto-Medium-41"/>
      <use x="1160.44921875" xlink:href="#Roboto-Medium-55"/>
      <use x="1228.61328125" xlink:href="#Roboto-Medium-43"/>
      <use x="1292.1875" xlink:href="#Roboto-Medium-20"/>
      <use x="1317.08984375" xlink:href="#Roboto-Medium-3d"/>
      <use x="1374.0234375" xlink:href="#Roboto-Medium-20"/>
      <use x="1398.92578125" xlink:href="#Roboto-Medium-30"/>
      <use x="1455.76171875" xlink:href="#Roboto-Medium-2e"/>
      <use x="1483.69140625" xlink:href="#Roboto-Medium-37"/>
      <use x="1540.52734375" xlink:href="#Roboto-Medium-32"/>
      <use x="1597.36328125" xlink:href="#Roboto-Medium-29"/>
     </g>
    </g>
    <g id="line2d_51">
     <path d="
M237.472 320.704
L251.472 320.704" style="fill:none;stroke:#7a68a6;stroke-width:2.0;"/>
    </g>
    <g id="line2d_52"/>
    <g id="text_18">
     <!-- ConSurf.Conservation-score (AUC = 0.72) -->
     <defs>
      <path d="
M28.0781 8.45312
Q32.4219 8.45312 35.3906 11.0156
Q38.375 13.5781 38.375 17.4375
L49.125 17.4375
L49.2188 17.1406
Q49.4688 9.71875 43.1875 4.34375
Q36.9219 -1.03125 28.0781 -1.03125
Q16.4062 -1.03125 10.1719 6.48438
Q3.95312 14.0156 3.95312 25.5312
L3.95312 27.25
Q3.95312 38.7188 10.1719 46.2656
Q16.4062 53.8125 28.0781 53.8125
Q37.5938 53.8125 43.5312 48.2656
Q49.4688 42.7188 49.2656 34.1875
L49.1719 33.8906
L38.375 33.8906
Q38.375 38.2344 35.5156 41.25
Q32.6719 44.2812 28.0781 44.2812
Q21.3906 44.2812 18.6094 39.4219
Q15.8281 34.5781 15.8281 27.25
L15.8281 25.5312
Q15.8281 18.0625 18.6094 13.25
Q21.3906 8.45312 28.0781 8.45312" id="Roboto-Medium-63"/>
      <path d="
M24.6094 17.875
L25.4844 13.5781
L25.7812 13.5781
L26.7031 17.875
L37.2031 52.8281
L49.4688 52.8281
L30.7188 0
L20.4062 0
L1.5625 52.8281
L13.8125 52.8281
z
" id="Roboto-Medium-76"/>
     </defs>
     <g transform="translate(262.471875 324.204375)scale(0.1 -0.1)">
      <use xlink:href="#Roboto-Medium-43"/>
      <use x="63.57421875" xlink:href="#Roboto-Medium-6f"/>
      <use x="120.21484375" xlink:href="#Roboto-Medium-6e"/>
      <use x="176.85546875" xlink:href="#Roboto-Medium-53"/>
      <use x="239.74609375" xlink:href="#Roboto-Medium-75"/>
      <use x="296.38671875" xlink:href="#Roboto-Medium-72"/>
      <use x="331.005859375" xlink:href="#Roboto-Medium-66"/>
      <use x="366.11328125" xlink:href="#Roboto-Medium-2e"/>
      <use x="394.04296875" xlink:href="#Roboto-Medium-43"/>
      <use x="457.6171875" xlink:href="#Roboto-Medium-6f"/>
      <use x="514.2578125" xlink:href="#Roboto-Medium-6e"/>
      <use x="570.8984375" xlink:href="#Roboto-Medium-73"/>
      <use x="622.900390625" xlink:href="#Roboto-Medium-65"/>
      <use x="675.830078125" xlink:href="#Roboto-Medium-72"/>
      <use x="710.44921875" xlink:href="#Roboto-Medium-76"/>
      <use x="761.1328125" xlink:href="#Roboto-Medium-61"/>
      <use x="815.52734375" xlink:href="#Roboto-Medium-74"/>
      <use x="850.29296875" xlink:href="#Roboto-Medium-69"/>
      <use x="876.220703125" xlink:href="#Roboto-Medium-6f"/>
      <use x="932.861328125" xlink:href="#Roboto-Medium-6e"/>
      <use x="989.501953125" xlink:href="#Roboto-Medium-2d"/>
      <use x="1022.31445312" xlink:href="#Roboto-Medium-73"/>
      <use x="1074.31640625" xlink:href="#Roboto-Medium-63"/>
      <use x="1126.80664062" xlink:href="#Roboto-Medium-6f"/>
      <use x="1183.44726562" xlink:href="#Roboto-Medium-72"/>
      <use x="1218.06640625" xlink:href="#Roboto-Medium-65"/>
      <use x="1270.99609375" xlink:href="#Roboto-Medium-20"/>
      <use x="1295.8984375" xlink:href="#Roboto-Medium-28"/>
      <use x="1329.83398438" xlink:href="#Roboto-Medium-41"/>
      <use x="1394.28710938" xlink:href="#Roboto-Medium-55"/>
      <use x="1462.45117188" xlink:href="#Roboto-Medium-43"/>
      <use x="1526.02539062" xlink:href="#Roboto-Medium-20"/>
      <use x="1550.92773438" xlink:href="#Roboto-Medium-3d"/>
      <use x="1607.86132812" xlink:href="#Roboto-Medium-20"/>
      <use x="1632.76367188" xlink:href="#Roboto-Medium-30"/>
      <use x="1689.59960938" xlink:href="#Roboto-Medium-2e"/>
      <use x="1717.52929688" xlink:href="#Roboto-Medium-37"/>
      <use x="1774.36523438" xlink:href="#Roboto-Medium-32"/>
      <use x="1831.20117188" xlink:href="#Roboto-Medium-29"/>
     </g>
    </g>
    <g id="line2d_53">
     <path d="
M237.472 335.861
L251.472 335.861" style="fill:none;stroke:#cf4457;stroke-width:2.0;"/>
    </g>
    <g id="line2d_54"/>
    <g id="text_19">
     <!-- CASTp.Pocket-rank (AUC = 0.63) -->
     <defs>
      <path d="
M19.625 26.9531
L19.625 0
L7.76562 0
L7.76562 71.0938
L35.5469 71.0938
Q47.3125 71.0938 53.9688 65.0156
Q60.6406 58.9375 60.6406 49.0312
Q60.6406 39.0156 53.9688 32.9844
Q47.3125 26.9531 35.5469 26.9531
z

M19.625 36.4688
L35.5469 36.4688
Q42.1406 36.4688 45.4531 39.9844
Q48.7812 43.5 48.7812 48.9219
Q48.7812 54.3438 45.4531 57.9531
Q42.1406 61.5781 35.5469 61.5781
L19.625 61.5781
z
" id="Roboto-Medium-50"/>
      <path d="
M19.0469 40.9219
L27.2969 40.9219
Q33.0625 40.9219 35.5938 43.7656
Q38.1406 46.625 38.1406 51.8594
Q38.1406 56.9844 35.4062 59.7812
Q32.6719 62.5938 27.3438 62.5938
Q22.5156 62.5938 19.4531 59.8281
Q16.4062 57.0781 16.4062 52.5938
L4.98438 52.5938
L4.89062 52.875
Q4.59375 61.0312 10.9531 66.5781
Q17.3281 72.125 27.2031 72.125
Q37.5938 72.125 43.7969 66.8438
Q50 61.5781 50 51.8594
Q50 47.3125 47.2188 43.0625
Q44.4375 38.8125 39.3125 36.4688
Q45.3594 34.3281 48.2188 29.9219
Q51.0781 25.5312 51.0781 19.9219
Q51.0781 10.1562 44.3594 4.5625
Q37.6406 -1.03125 27.2031 -1.03125
Q17.3281 -1.03125 10.6094 4.21875
Q3.90625 9.46875 4.20312 18.75
L4.29688 19.0469
L15.7188 19.0469
Q15.7188 14.3125 18.8906 11.375
Q22.0781 8.45312 27.3438 8.45312
Q32.8594 8.45312 36.0312 11.4219
Q39.2031 14.4062 39.2031 19.875
Q39.2031 25.875 36.2969 28.7344
Q33.4062 31.5938 27.2969 31.5938
L19.0469 31.5938
z
" id="Roboto-Medium-33"/>
     </defs>
     <g transform="translate(262.471875 339.360625)scale(0.1 -0.1)">
      <use xlink:href="#Roboto-Medium-43"/>
      <use x="63.57421875" xlink:href="#Roboto-Medium-41"/>
      <use x="128.02734375" xlink:href="#Roboto-Medium-53"/>
      <use x="190.91796875" xlink:href="#Roboto-Medium-54"/>
      <use x="248.779296875" xlink:href="#Roboto-Medium-70"/>
      <use x="305.419921875" xlink:href="#Roboto-Medium-2e"/>
      <use x="333.349609375" xlink:href="#Roboto-Medium-50"/>
      <use x="397.94921875" xlink:href="#Roboto-Medium-6f"/>
      <use x="454.58984375" xlink:href="#Roboto-Medium-63"/>
      <use x="507.080078125" xlink:href="#Roboto-Medium-6b"/>
      <use x="559.423828125" xlink:href="#Roboto-Medium-65"/>
      <use x="612.353515625" xlink:href="#Roboto-Medium-74"/>
      <use x="647.119140625" xlink:href="#Roboto-Medium-2d"/>
      <use x="679.931640625" xlink:href="#Roboto-Medium-72"/>
      <use x="714.55078125" xlink:href="#Roboto-Medium-61"/>
      <use x="768.9453125" xlink:href="#Roboto-Medium-6e"/>
      <use x="825.5859375" xlink:href="#Roboto-Medium-6b"/>
      <use x="877.9296875" xlink:href="#Roboto-Medium-20"/>
      <use x="902.83203125" xlink:href="#Roboto-Medium-28"/>
      <use x="936.767578125" xlink:href="#Roboto-Medium-41"/>
      <use x="1001.22070312" xlink:href="#Roboto-Medium-55"/>
      <use x="1069.38476562" xlink:href="#Roboto-Medium-43"/>
      <use x="1132.95898438" xlink:href="#Roboto-Medium-20"/>
      <use x="1157.86132812" xlink:href="#Roboto-Medium-3d"/>
      <use x="1214.79492188" xlink:href="#Roboto-Medium-20"/>
      <use x="1239.69726562" xlink:href="#Roboto-Medium-30"/>
      <use x="1296.53320312" xlink:href="#Roboto-Medium-2e"/>
      <use x="1324.46289062" xlink:href="#Roboto-Medium-36"/>
      <use x="1381.29882812" xlink:href="#Roboto-Medium-33"/>
      <use x="1438.13476562" xlink:href="#Roboto-Medium-29"/>
     </g>
    </g>
    <g id="line2d_55">
     <path d="
M237.472 351.017
L251.472 351.017" style="fill:none;stroke:#188487;stroke-width:2.0;"/>
    </g>
    <g id="line2d_56"/>
    <g id="text_20">
     <!-- Physicochemical.Polar (AUC = 0.55) -->
     <defs>
      <path d="
M17.9688 46
Q20.6094 49.7031 24.3906 51.75
Q28.1719 53.8125 32.7656 53.8125
Q41.1562 53.8125 45.875 48.5156
Q50.5938 43.2188 50.5938 32.1719
L50.5938 0
L38.7188 0
L38.7188 32.2812
Q38.7188 38.5312 36.2188 41.3125
Q33.7344 44.0938 28.7656 44.0938
Q25.2969 44.0938 22.5312 42.6562
Q19.7812 41.2188 17.9688 38.6719
L17.9688 0
L6.10938 0
L6.10938 76.1719
L17.9688 76.1719
z
" id="Roboto-Medium-68"/>
      <path d="
M23.7812 21.1875
L24.9531 15.9219
L25.25 15.9219
L36.8125 52.8281
L49.8125 52.8281
L27.9375 -8.01562
Q25.8281 -13.5312 22.0156 -17.4375
Q18.2188 -21.3438 11.2344 -21.3438
Q9.76562 -21.3438 8.07812 -21.0469
Q6.39062 -20.75 4.82812 -20.3594
L6.15625 -11.1875
Q6.78125 -11.2344 7.95312 -11.3281
Q9.125 -11.4219 9.71875 -11.4219
Q12.9375 -11.4219 14.8594 -9.21875
Q16.7969 -7.03125 18.0156 -4.15625
L19.9688 0.640625
L0.78125 52.8281
L13.7188 52.8281
z
" id="Roboto-Medium-79"/>
      <path d="
M7.625 31.7812
L11.7188 71.0938
L49.2656 71.0938
L49.2656 60.8438
L21.5781 60.8438
L19.4375 43.0156
Q21.5312 44.5781 24.2812 45.5781
Q27.0469 46.5781 30.5156 46.6875
Q40.5312 46.7812 46.1875 40.3281
Q51.8594 33.8906 51.8594 22.7031
Q51.8594 12.25 45.8906 5.60938
Q39.9375 -1.03125 28.6562 -1.03125
Q19.2812 -1.03125 12.8125 4.125
Q6.34375 9.28125 6.59375 18.75
L6.6875 19
L17.7812 19.3906
Q17.7812 14.2031 20.7969 11.3281
Q23.8281 8.45312 28.6562 8.45312
Q34.1875 8.45312 37.0781 12.3281
Q39.9844 16.2188 39.9844 22.6094
Q39.9844 29.0469 37 33.0781
Q34.0312 37.1094 28.5156 37.1094
Q23.6406 37.1094 21.2656 35.5156
Q18.8906 33.9375 17.8281 30.9531
z
" id="Roboto-Medium-35"/>
     </defs>
     <g transform="translate(262.471875 354.516875)scale(0.1 -0.1)">
      <use xlink:href="#Roboto-Medium-50"/>
      <use x="64.599609375" xlink:href="#Roboto-Medium-68"/>
      <use x="121.240234375" xlink:href="#Roboto-Medium-79"/>
      <use x="171.923828125" xlink:href="#Roboto-Medium-73"/>
      <use x="223.92578125" xlink:href="#Roboto-Medium-69"/>
      <use x="249.853515625" xlink:href="#Roboto-Medium-63"/>
      <use x="302.34375" xlink:href="#Roboto-Medium-6f"/>
      <use x="358.984375" xlink:href="#Roboto-Medium-63"/>
      <use x="411.474609375" xlink:href="#Roboto-Medium-68"/>
      <use x="468.115234375" xlink:href="#Roboto-Medium-65"/>
      <use x="521.044921875" xlink:href="#Roboto-Medium-6d"/>
      <use x="608.0078125" xlink:href="#Roboto-Medium-69"/>
      <use x="633.935546875" xlink:href="#Roboto-Medium-63"/>
      <use x="686.42578125" xlink:href="#Roboto-Medium-61"/>
      <use x="740.8203125" xlink:href="#Roboto-Medium-6c"/>
      <use x="766.748046875" xlink:href="#Roboto-Medium-2e"/>
      <use x="794.677734375" xlink:href="#Roboto-Medium-50"/>
      <use x="859.27734375" xlink:href="#Roboto-Medium-6f"/>
      <use x="915.91796875" xlink:href="#Roboto-Medium-6c"/>
      <use x="941.845703125" xlink:href="#Roboto-Medium-61"/>
      <use x="996.240234375" xlink:href="#Roboto-Medium-72"/>
      <use x="1030.859375" xlink:href="#Roboto-Medium-20"/>
      <use x="1055.76171875" xlink:href="#Roboto-Medium-28"/>
      <use x="1089.69726562" xlink:href="#Roboto-Medium-41"/>
      <use x="1154.15039062" xlink:href="#Roboto-Medium-55"/>
      <use x="1222.31445312" xlink:href="#Roboto-Medium-43"/>
      <use x="1285.88867188" xlink:href="#Roboto-Medium-20"/>
      <use x="1310.79101562" xlink:href="#Roboto-Medium-3d"/>
      <use x="1367.72460938" xlink:href="#Roboto-Medium-20"/>
      <use x="1392.62695312" xlink:href="#Roboto-Medium-30"/>
      <use x="1449.46289062" xlink:href="#Roboto-Medium-2e"/>
      <use x="1477.39257812" xlink:href="#Roboto-Medium-35"/>
      <use x="1534.22851562" xlink:href="#Roboto-Medium-35"/>
      <use x="1591.06445312" xlink:href="#Roboto-Medium-29"/>
     </g>
    </g>
    <g id="line2d_57">
     <path d="
M237.472 366.173
L251.472 366.173" style="fill:none;stroke:#e24a33;stroke-width:2.0;"/>
    </g>
    <g id="line2d_58"/>
    <g id="text_21">
     <!-- Physicochemical.Hydrogen-bonding (AUC = 0.55) -->
     <defs>
      <path d="
M63.2812 0
L51.4688 0
L51.4688 30.3281
L19.625 30.3281
L19.625 0
L7.76562 0
L7.76562 71.0938
L19.625 71.0938
L19.625 39.8438
L51.4688 39.8438
L51.4688 71.0938
L63.2812 71.0938
z
" id="Roboto-Medium-48"/>
      <path d="
M4.10938 25.6875
Q4.10938 38.2812 9.625 46.0469
Q15.1406 53.8125 24.9531 53.8125
Q29.6875 53.8125 33.2656 51.7812
Q36.8594 49.75 39.3594 45.9531
L40.5312 52.8281
L50.3906 52.8281
L50.3906 0
Q50.3906 -10.2031 44.0938 -15.7656
Q37.7969 -21.3438 26.2188 -21.3438
Q22.3594 -21.3438 17.8906 -20.2344
Q13.4219 -19.1406 9.8125 -17.3281
L12.3594 -8.01562
Q15.2812 -9.51562 18.8125 -10.375
Q22.3594 -11.2344 26.125 -11.2344
Q32.5625 -11.2344 35.5469 -8.46875
Q38.5312 -5.71875 38.5312 0
L38.5312 5.42188
Q36.0312 2.25 32.6406 0.609375
Q29.25 -1.03125 24.8594 -1.03125
Q15.1406 -1.03125 9.625 6.04688
Q4.10938 13.1406 4.10938 24.6562
z

M15.9688 24.6562
Q15.9688 17.3906 18.875 13.0156
Q21.7812 8.64062 27.875 8.64062
Q31.6875 8.64062 34.2969 10.2188
Q36.9219 11.8125 38.5312 14.7969
L38.5312 37.9375
Q36.8594 40.8281 34.25 42.4531
Q31.6406 44.0938 27.9844 44.0938
Q21.875 44.0938 18.9219 38.9688
Q15.9688 33.8438 15.9688 25.6875
z
" id="Roboto-Medium-67"/>
     </defs>
     <g transform="translate(262.471875 369.673125)scale(0.1 -0.1)">
      <use xlink:href="#Roboto-Medium-50"/>
      <use x="64.599609375" xlink:href="#Roboto-Medium-68"/>
      <use x="121.240234375" xlink:href="#Roboto-Medium-79"/>
      <use x="171.923828125" xlink:href="#Roboto-Medium-73"/>
      <use x="223.92578125" xlink:href="#Roboto-Medium-69"/>
      <use x="249.853515625" xlink:href="#Roboto-Medium-63"/>
      <use x="302.34375" xlink:href="#Roboto-Medium-6f"/>
      <use x="358.984375" xlink:href="#Roboto-Medium-63"/>
      <use x="411.474609375" xlink:href="#Roboto-Medium-68"/>
      <use x="468.115234375" xlink:href="#Roboto-Medium-65"/>
      <use x="521.044921875" xlink:href="#Roboto-Medium-6d"/>
      <use x="608.0078125" xlink:href="#Roboto-Medium-69"/>
      <use x="633.935546875" xlink:href="#Roboto-Medium-63"/>
      <use x="686.42578125" xlink:href="#Roboto-Medium-61"/>
      <use x="740.8203125" xlink:href="#Roboto-Medium-6c"/>
      <use x="766.748046875" xlink:href="#Roboto-Medium-2e"/>
      <use x="794.677734375" xlink:href="#Roboto-Medium-48"/>
      <use x="865.771484375" xlink:href="#Roboto-Medium-79"/>
      <use x="916.455078125" xlink:href="#Roboto-Medium-64"/>
      <use x="973.095703125" xlink:href="#Roboto-Medium-72"/>
      <use x="1007.71484375" xlink:href="#Roboto-Medium-6f"/>
      <use x="1064.35546875" xlink:href="#Roboto-Medium-67"/>
      <use x="1120.99609375" xlink:href="#Roboto-Medium-65"/>
      <use x="1173.92578125" xlink:href="#Roboto-Medium-6e"/>
      <use x="1230.56640625" xlink:href="#Roboto-Medium-2d"/>
      <use x="1263.37890625" xlink:href="#Roboto-Medium-62"/>
      <use x="1320.01953125" xlink:href="#Roboto-Medium-6f"/>
      <use x="1376.66015625" xlink:href="#Roboto-Medium-6e"/>
      <use x="1433.30078125" xlink:href="#Roboto-Medium-64"/>
      <use x="1489.94140625" xlink:href="#Roboto-Medium-69"/>
      <use x="1515.86914062" xlink:href="#Roboto-Medium-6e"/>
      <use x="1572.50976562" xlink:href="#Roboto-Medium-67"/>
      <use x="1629.15039062" xlink:href="#Roboto-Medium-20"/>
      <use x="1654.05273438" xlink:href="#Roboto-Medium-28"/>
      <use x="1687.98828125" xlink:href="#Roboto-Medium-41"/>
      <use x="1752.44140625" xlink:href="#Roboto-Medium-55"/>
      <use x="1820.60546875" xlink:href="#Roboto-Medium-43"/>
      <use x="1884.1796875" xlink:href="#Roboto-Medium-20"/>
      <use x="1909.08203125" xlink:href="#Roboto-Medium-3d"/>
      <use x="1966.015625" xlink:href="#Roboto-Medium-20"/>
      <use x="1990.91796875" xlink:href="#Roboto-Medium-30"/>
      <use x="2047.75390625" xlink:href="#Roboto-Medium-2e"/>
      <use x="2075.68359375" xlink:href="#Roboto-Medium-35"/>
      <use x="2132.51953125" xlink:href="#Roboto-Medium-35"/>
      <use x="2189.35546875" xlink:href="#Roboto-Medium-29"/>
     </g>
    </g>
    <g id="line2d_59">
     <path d="
M237.472 381.017
L251.472 381.017" style="fill:none;stroke:#999999;stroke-dasharray:6.000000,6.000000;stroke-dashoffset:0.0;stroke-linecap:butt;stroke-width:2.0;"/>
    </g>
    <g id="line2d_60"/>
    <g id="text_22">
     <!-- Random -->
     <defs>
      <path d="
M19.625 29.5
L19.625 0
L7.76562 0
L7.76562 71.0938
L34.0312 71.0938
Q45.9531 71.0938 52.4375 65.7188
Q58.9375 60.3594 58.9375 50.3906
Q58.9375 44.875 56.0781 40.8906
Q53.2188 36.9219 47.75 34.5156
Q53.7656 32.625 56.3906 28.2969
Q59.0312 23.9688 59.0312 17.6719
L59.0312 11.7656
Q59.0312 8.64062 59.8125 5.65625
Q60.5938 2.6875 62.4531 1.125
L62.4531 0
L50.25 0
Q48.2969 1.60938 47.7344 5.07812
Q47.1719 8.54688 47.1719 11.8594
L47.1719 17.5781
Q47.1719 23.0469 44.0469 26.2656
Q40.9219 29.5 35.4531 29.5
z

M19.625 39.0156
L33.4062 39.0156
Q40.5312 39.0156 43.7969 41.75
Q47.0781 44.4844 47.0781 50.0938
Q47.0781 55.4688 43.8438 58.5156
Q40.625 61.5781 34.0312 61.5781
L19.625 61.5781
z
" id="Roboto-Medium-52"/>
     </defs>
     <g transform="translate(262.471875 384.516875)scale(0.1 -0.1)">
      <use xlink:href="#Roboto-Medium-52"/>
      <use x="66.2109375" xlink:href="#Roboto-Medium-61"/>
      <use x="120.60546875" xlink:href="#Roboto-Medium-6e"/>
      <use x="177.24609375" xlink:href="#Roboto-Medium-64"/>
      <use x="233.88671875" xlink:href="#Roboto-Medium-6f"/>
      <use x="290.52734375" xlink:href="#Roboto-Medium-6d"/>
     </g>
    </g>
   </g>
  </g>
 </g>
 <defs>
  <clipPath id="p4ab6bb4454">
   <rect height="382.82" width="448.7309375" x="44.4690625" y="10.8"/>
  </clipPath>
 </defs>
</svg>
